<?xml version="1.0" encoding="utf-8"?>
<!-- Generator: Adobe Illustrator 27.5.0, SVG Export Plug-In . SVG Version: 6.00 Build 0)  -->
<svg version="1.1" xmlns="http://www.w3.org/2000/svg" xmlns:xlink="http://www.w3.org/1999/xlink" x="0px" y="0px"
	 viewBox="0 0 500 500" style="enable-background:new 0 0 500 500;" xml:space="preserve">
<g id="BACKGROUND">
	<rect style="fill:#FFFFFF;" width="500" height="500"/>
</g>
<g id="OBJECTS">
	<g>
		<g>
			<g>
				<g>
					<path style="fill:#2E2F2E;" d="M332.355,185.161c-3.822-1.839-8.851-0.347-10.927,3.179c-2.068,3.529-1.137,8.476,2.155,10.883
						c0.797,0.699,1.722,1.392,2.307,2.567c0.614,1.18,0.273,2.888-0.885,3.694c-1.107,0.786-2.321,0.921-3.444,0.983
						c-1.128,0.064-2.282-0.098-3.287-0.179c-2.077-0.157-4.167-0.104-6.231,0.142c-1.032,0.124-2.057,0.306-3.069,0.538
						c-1.015,0.23-1.998,0.507-2.889,0.908c-0.894,0.4-1.668,0.933-2.274,1.636c-0.614,0.7-1.062,1.563-1.375,2.483
						c-0.63,1.848-0.685,3.927-0.438,5.916c0.538,4.019,2.636,7.736,5.33,10.828c2.709,3.112,6.204,5.503,9.882,7.535
						c3.696,2.024,7.584,3.775,11.449,5.642c7.721,3.735,15.219,8.026,22.04,13.255c6.89,5.157,12.814,11.452,18.217,18.089
						c1.35,1.659,2.641,3.385,3.936,5.068c1.307,1.681,2.664,3.329,4.009,4.993c2.708,3.305,5.379,6.721,7.373,10.589
						c2.003,3.853,3.25,8.131,3.529,12.506c0.125,2.188,0.01,4.399-0.396,6.573c-0.421,2.17-1.159,4.289-2.199,6.261l-1.121-1.196
						c1.408-0.699,2.81-1.636,4.133-2.601c1.31-0.98,2.627-2.024,3.598-3.202c2.063-2.469,3.309-5.488,4.214-8.669
						c1.852-6.371,2.52-13.038,2.613-19.714c0.054-3.343-0.036-6.691-0.155-10.055c-0.112-3.359-0.242-6.71-0.505-10.044
						c-0.512-6.666-1.526-13.277-3.571-19.602c-1.985-6.343-4.815-12.415-8.2-18.164c-3.428-5.728-7.417-11.132-11.822-16.18
						c-2.174-2.551-4.492-4.978-6.845-7.372c-2.393-2.357-4.795-4.702-7.411-6.786c-2.599-2.1-5.367-4.001-8.36-5.497
						c-1.5-0.738-3.048-1.379-4.638-1.908c-1.597-0.506-3.232-0.894-4.89-1.169l0.029-0.218c1.679,0.207,3.346,0.531,4.985,0.976
						c1.631,0.469,3.23,1.055,4.786,1.743c3.1,1.402,6.018,3.201,8.725,5.257c2.722,2.045,5.22,4.349,7.696,6.653
						c2.442,2.346,4.853,4.733,7.127,7.251c4.571,5.014,8.705,10.445,12.309,16.224c3.556,5.804,6.6,11.976,8.633,18.518
						c2.134,6.515,3.2,13.327,3.744,20.093c0.522,6.786,0.715,13.52,0.591,20.328c-0.16,6.79-0.91,13.663-2.893,20.244
						c-0.954,3.275-2.37,6.627-4.71,9.314c-1.21,1.403-2.593,2.434-3.99,3.45c-1.418,0.993-2.841,1.923-4.468,2.698l-2.417,1.152
						l1.296-2.348c0.989-1.792,1.69-3.741,2.145-5.753c0.431-2.019,0.596-4.102,0.531-6.182c-0.161-4.165-1.232-8.304-3.093-12.074
						c-1.846-3.79-4.395-7.217-7.022-10.573c-1.325-1.673-2.674-3.334-3.975-5.039c-1.296-1.715-2.551-3.423-3.886-5.09
						c-5.263-6.703-11.333-12.79-18.175-17.844c-6.877-5.023-14.431-9.031-22.181-12.538c-3.869-1.768-7.865-3.352-11.671-5.436
						c-3.797-2.057-7.509-4.53-10.46-7.857c-2.952-3.271-5.16-7.383-5.738-11.881c-0.251-2.236-0.179-4.545,0.59-6.751
						c0.386-1.094,0.946-2.163,1.753-3.066c0.801-0.914,1.842-1.6,2.902-2.057c1.065-0.464,2.156-0.752,3.225-0.983
						c1.073-0.234,2.157-0.415,3.248-0.534c2.181-0.248,4.387-0.259,6.566-0.027c1.12,0.122,2.09,0.286,3.103,0.257
						c0.986-0.011,2.004-0.168,2.661-0.628c0.633-0.422,0.854-1.288,0.519-2.032c-0.343-0.777-1.133-1.48-1.922-2.185
						c-0.806-0.687-1.646-1.577-2.195-2.565c-0.57-0.989-0.946-2.078-1.127-3.192c-0.354-2.224,0.063-4.581,1.29-6.474
						c2.485-3.815,7.882-5.071,11.712-2.95L332.355,185.161z"/>
				</g>
				<g>
					<path style="fill:#2E2F2E;" d="M329.233,206.037c8.712,5.217,17.089,11.054,24.862,17.658
						c7.79,6.577,14.976,13.916,21.258,21.993c6.247,8.099,11.56,16.953,15.481,26.406c3.947,9.43,6.459,19.483,7.088,29.629
						c-1.484-10.053-4.519-19.771-8.664-28.943c-4.177-9.164-9.47-17.799-15.645-25.744c-6.148-7.976-13.159-15.274-20.645-22.052
						C345.458,218.225,337.478,211.965,329.233,206.037z"/>
				</g>
				<g>
					<g>
						<path style="fill:#2E2F2E;" d="M325.938,208.599c-2.393,1.31-5.229,1.34-7.884,1.318c-2.672-0.075-5.381-0.136-7.858,0.751
							c-1.227,0.43-2.346,1.123-3.184,2.073c-0.833,0.957-1.304,2.186-1.494,3.458c-0.355,2.561,0.141,5.255,1.23,7.61
							c1.064,2.39,2.839,4.402,4.916,6.025c2.074,1.643,4.421,2.93,6.743,4.262c4.666,2.629,9.418,5.107,14.219,7.502
							c-4.945-2.083-9.782-4.424-14.524-6.944c-2.373-1.246-4.74-2.567-6.901-4.227c-2.152-1.649-4.058-3.754-5.203-6.274
							c-1.126-2.511-1.626-5.316-1.221-8.071c0.216-1.368,0.749-2.741,1.697-3.809c0.943-1.068,2.205-1.79,3.517-2.204
							c2.644-0.86,5.422-0.709,8.076-0.555C320.717,209.667,323.469,209.733,325.938,208.599z"/>
					</g>
					<g>
						<path style="fill:#2E2F2E;" d="M337.5,244.01c1.435,0.632,2.723,1.467,3.976,2.352c1.238,0.905,2.439,1.861,3.493,3.022
							c-1.436-0.63-2.724-1.466-3.975-2.352C339.756,246.125,338.555,245.169,337.5,244.01z"/>
					</g>
					<g>
						<path style="fill:#2E2F2E;" d="M350.7,253.401c2.587,2.013,5.113,4.11,7.571,6.285c2.442,2.193,4.809,4.471,7.107,6.818
							c4.589,4.701,8.829,9.741,12.765,15.004c3.868,5.277,7.554,10.903,9.413,17.291c0.916,3.179,1.339,6.51,1.12,9.809
							c-0.243,3.29-1.154,6.552-2.848,9.367c1.576-2.883,2.338-6.145,2.444-9.389c0.133-3.251-0.353-6.511-1.324-9.604
							c-1.945-6.224-5.563-11.765-9.467-16.983c-3.861-5.277-8.087-10.283-12.559-15.057c-2.233-2.391-4.544-4.709-6.922-6.959
							C355.637,257.714,353.203,255.518,350.7,253.401z"/>
					</g>
				</g>
				<g>
					<g>
						<path style="fill:#2E2F2E;" d="M324.628,197.532c-0.916-1.262-1.861-2.558-2.305-4.109c-0.213-0.77-0.304-1.59-0.176-2.402
							c0.12-0.811,0.489-1.605,1.05-2.219c1.132-1.244,2.7-1.878,4.228-2.336c1.553-0.445,3.189-0.625,4.819-0.521l-0.102,1.097
							c-1.493-0.184-3.028-0.108-4.512,0.225c-1.472,0.345-2.969,0.868-4.03,1.912c-1.09,1.028-1.353,2.689-1.008,4.177
							C322.925,194.867,323.785,196.22,324.628,197.532z"/>
					</g>
					<g>
						<path style="fill:#2E2F2E;" d="M342.333,187.707c13.621,5.39,25.445,15.029,33.433,27.169
							c-8.292-11.935-20.29-21.177-33.826-26.14L342.333,187.707z"/>
					</g>
				</g>
				<g>
					<g>
						<path style="fill:#2E2F2E;" d="M378.931,219.305c0.441,0.534,0.835,1.092,1.229,1.65c0.399,0.555,0.767,1.127,1.142,1.695
							c0.364,0.575,0.735,1.146,1.077,1.737c0.347,0.588,0.694,1.177,0.999,1.798c-0.491-0.488-0.927-1.019-1.349-1.56
							c-0.427-0.538-0.812-1.105-1.189-1.677c-0.366-0.579-0.725-1.163-1.04-1.773C379.48,220.569,379.175,219.953,378.931,219.305z
							"/>
					</g>
					<g>
						<path style="fill:#2E2F2E;" d="M387.212,231.387c0.965,1.695,1.82,3.451,2.607,5.237c0.788,1.786,1.471,3.617,2.118,5.459
							c0.605,1.857,1.171,3.727,1.629,5.625c0.458,1.897,0.844,3.812,1.104,5.745c-0.485-1.888-0.973-3.771-1.514-5.636
							c-0.54-1.866-1.099-3.725-1.741-5.557c-0.6-1.846-1.286-3.663-1.987-5.474C388.727,234.974,387.973,233.182,387.212,231.387z"
							/>
					</g>
				</g>
			</g>
			<g>
				<g>
					<g>
						<g>
							<path style="fill:#2E2F2E;" d="M215.926,207.722c-1.512-4.451-3.839-8.618-6.813-12.249c-1.485-1.817-3.14-3.495-4.928-5.01
								c-1.793-1.504-3.75-2.832-5.894-3.751c-2.134-0.936-4.464-1.39-6.789-1.327c-2.327,0.05-4.628,0.546-6.846,1.266
								c-2.223,0.72-4.371,1.664-6.486,2.679c-2.113,1.025-4.214,2.08-6.209,3.289c-1.999,1.2-3.891,2.568-5.547,4.17
								c-0.822,0.806-1.574,1.675-2.245,2.599c-0.343,0.457-0.635,0.949-0.921,1.443l-0.434,0.738l-0.367,0.776
								c-1.968,4.161-2.506,8.858-3.098,13.516c-0.295,2.339-0.6,4.703-1.118,7.051c-0.51,2.343-1.288,4.681-2.35,6.864
								c-1.067,2.154-2.276,4.169-3.124,6.264c-0.859,2.075-1.257,4.281-0.525,6.225l-1.761-0.002
								c0.857-2.41,1.744-4.834,2.833-7.201c1.089-2.361,2.383-4.683,4.103-6.729c1.692-2.053,3.836-3.82,6.277-4.968
								c2.432-1.168,5.06-1.77,7.659-2.065c2.606-0.302,5.203-0.31,7.767-0.268c2.561,0.055,5.11,0.103,7.682,0.242
								c2.567,0.143,5.144,0.387,7.704,0.814c1.279,0.22,2.552,0.489,3.812,0.818c1.253,0.326,2.528,0.704,3.758,1.302
								c1.22,0.595,2.409,1.438,3.228,2.651c0.795,1.184,1.252,2.682,0.951,4.192c-0.309,1.533-1.469,2.696-2.673,3.355
								c-1.22,0.696-2.535,1.014-3.811,1.29c-5.186,1.026-10.348,0.258-15.314,0.922c-2.49,0.287-4.861,1.087-7.104,2.234
								c-2.252,1.127-4.38,2.527-6.57,3.855c-2.186,1.332-4.486,2.563-6.965,3.358c-2.466,0.787-5.173,1.112-7.753,0.484
								l0.464-0.393c0.354,5.247,2.191,10.341,5.174,14.699c1.439,2.217,2.985,4.448,3.907,7.019
								c0.94,2.596,0.869,5.338,1.569,7.827c0.331,1.254,0.905,2.387,1.762,3.346c0.84,0.969,1.888,1.793,2.822,2.794
								c0.467,0.499,0.9,1.045,1.262,1.639c0.371,0.599,0.626,1.22,0.917,1.829c0.531,1.242,0.974,2.517,1.34,3.813
								c1.444,5.208,1.596,10.617,1.747,15.917l-0.732-0.462c7.703-3.535,15.84-6.137,24.178-7.727
								c1.049-0.215,2.088-0.338,2.917-0.704c0.823-0.342,1.436-1.011,1.943-1.848c0.971-1.728,1.638-3.672,1.927-5.675
								c0.6-4.034-0.008-8.203-0.565-12.37c-0.28-2.091-0.557-4.202-0.691-6.347c-0.075-1.084-0.091-2.125-0.072-3.268
								c0.04-0.58,0.136-1.384,0.788-2.045c0.673-0.645,1.51-0.724,2.119-0.72c2.357,0.096,4.514,0.902,6.434,2.09
								c1.894,1.219,3.518,2.806,4.792,4.623c1.296,1.805,2.256,3.83,2.901,5.954c0.622,2.114,0.953,4.293,1.066,6.461
								c0.235,4.349-0.336,8.62-0.931,12.8l-1.712-0.995c2.652-2.085,5.327-4.196,8.201-6.082c1.437-0.941,2.916-1.835,4.462-2.623
								c1.544-0.796,3.157-1.466,4.743-2.074c3.168-1.218,6.332-2.289,8.971-4.047c2.637-1.736,4.504-4.313,5.276-7.368
								c0.794-3.042,0.692-6.345,0.179-9.563c-0.529-3.227-1.445-6.432-2.671-9.466c-0.619-1.519-1.35-2.982-2.153-4.399
								c-0.83-1.4-1.759-2.731-2.791-3.97c-1.058-1.214-2.22-2.323-3.487-3.293c-1.291-0.933-2.682-1.708-4.148-2.311l-2.595-1.068
								l2.595-1.021c3.788-1.491,8.05-1.134,11.664,0.327c3.643,1.461,6.831,3.935,9.145,7.088
								c2.296,3.126,3.801,6.727,4.775,10.386c0.978,3.669,1.458,7.415,1.746,11.138l-1.467-0.664
								c0.745-0.565,1.419-1.221,2.008-1.959c0.572-0.753,1.056-1.58,1.467-2.452c0.8-1.76,1.288-3.687,1.572-5.656
								c0.281-1.973,0.367-3.982,0.364-6.01c0.003-2.022-0.1-4.041-0.332-6.044c-0.458-4-1.482-7.953-3.306-11.532
								c-1.848-3.549-4.505-6.732-7.866-8.934c-1.675-1.101-3.518-1.949-5.464-2.446c-1.945-0.512-3.974-0.694-6.003-0.732
								c-2.033-0.039-4.074,0.075-6.118,0.178c-2.048,0.108-4.099,0.136-6.147,0.133c-2.05-0.011-4.108-0.086-6.148-0.371
								c-2.028-0.297-4.086-0.754-5.898-1.797c-1.84-1.027-3.12-2.802-3.974-4.66C217.109,211.645,216.563,209.66,215.926,207.722z
								 M216.135,207.652c0.655,1.94,1.217,3.913,2.092,5.749c0.858,1.826,2.114,3.525,3.889,4.497
								c1.759,0.994,3.785,1.431,5.788,1.706c2.016,0.264,4.059,0.323,6.098,0.316c2.043-0.014,4.085-0.059,6.123-0.183
								c2.041-0.111,4.087-0.261,6.147-0.271c2.057-0.004,4.139,0.136,6.167,0.625c2.032,0.475,3.973,1.318,5.74,2.428
								c3.546,2.222,6.373,5.467,8.373,9.123c1.98,3.683,3.132,7.754,3.696,11.863c0.286,2.057,0.438,4.128,0.482,6.198
								c0.05,2.063,0.011,4.154-0.238,6.241c-0.256,2.084-0.716,4.177-1.581,6.164c-0.447,0.986-0.986,1.94-1.642,2.826
								c-0.674,0.873-1.462,1.664-2.342,2.345l-1.315,1.018l-0.153-1.682c-0.332-3.653-0.853-7.282-1.832-10.764
								c-0.975-3.475-2.435-6.805-4.573-9.635c-2.116-2.783-5.005-5.016-8.242-6.305c-3.223-1.291-6.87-1.553-10.032-0.299l0-2.089
								c1.659,0.674,3.23,1.546,4.676,2.59c1.419,1.078,2.706,2.304,3.867,3.632c1.132,1.351,2.139,2.791,3.033,4.292
								c0.865,1.515,1.645,3.074,2.304,4.678c1.306,3.217,2.263,6.538,2.835,9.967c0.549,3.42,0.699,7.013-0.204,10.528
								c-0.449,1.748-1.21,3.455-2.293,4.948c-1.077,1.5-2.465,2.748-3.957,3.743c-3.018,1.973-6.335,3.042-9.45,4.229
								c-6.269,2.167-11.587,6.202-16.893,10.356l-2.105,1.648l0.393-2.643c0.618-4.151,1.184-8.293,0.983-12.383
								c-0.095-2.04-0.394-4.062-0.951-5.996c-0.569-1.91-1.426-3.751-2.583-5.379c-1.133-1.644-2.561-3.073-4.201-4.158
								c-1.633-1.052-3.564-1.766-5.431-1.866c-0.427-0.015-0.724,0.077-0.824,0.186c-0.118,0.094-0.237,0.407-0.262,0.861
								c-0.025,0.964-0.028,2.033,0.033,3.053c0.104,2.065,0.348,4.142,0.602,6.233c0.498,4.166,1.097,8.476,0.402,12.819
								c-0.344,2.166-1.078,4.265-2.202,6.196c-0.58,0.952-1.464,1.92-2.617,2.379c-1.122,0.463-2.211,0.553-3.222,0.755
								c-8.248,1.469-16.326,3.936-23.999,7.332l-0.721,0.319l-0.012-0.781c-0.079-5.298-0.166-10.63-1.507-15.721
								c-0.347-1.265-0.773-2.504-1.281-3.709c-0.279-0.589-0.53-1.203-0.858-1.736c-0.327-0.543-0.721-1.045-1.158-1.519
								c-0.872-0.949-1.925-1.783-2.826-2.827c-0.916-1.027-1.569-2.332-1.903-3.649c-0.715-2.641-0.635-5.353-1.516-7.79
								c-0.866-2.458-2.364-4.658-3.801-6.892c-3.015-4.414-4.979-9.631-5.363-15.008l-0.037-0.512l0.501,0.118
								c2.41,0.57,4.96,0.257,7.33-0.516c2.384-0.782,4.611-1.988,6.768-3.322c2.166-1.326,4.296-2.756,6.586-3.962
								c2.274-1.216,4.799-2.115,7.383-2.453c5.153-0.758,10.328-0.091,15.191-1.156c1.206-0.28,2.398-0.601,3.394-1.197
								c1-0.577,1.762-1.43,1.95-2.446c0.192-1.017-0.142-2.154-0.778-3.061c-0.628-0.904-1.595-1.593-2.666-2.092
								c-1.075-0.503-2.265-0.843-3.482-1.138c-1.214-0.296-2.443-0.536-3.682-0.729c-2.481-0.374-4.995-0.573-7.524-0.674
								c-2.525-0.109-5.079-0.155-7.62-0.194c-2.535-0.029-5.054-0.005-7.519,0.294c-2.461,0.291-4.873,0.868-7.044,1.925
								c-2.175,1.039-4.061,2.604-5.601,4.488c-3.09,3.798-4.952,8.551-6.688,13.311l-0.892,2.445l-0.869-2.446
								c-0.446-1.255-0.562-2.622-0.401-3.906c0.156-1.289,0.548-2.497,1.017-3.632c0.949-2.27,2.199-4.298,3.24-6.357
								c2.075-4.074,2.827-8.7,3.509-13.347c0.694-4.634,1.332-9.475,3.508-13.847l0.407-0.813l0.477-0.776
								c0.316-0.519,0.637-1.034,1.013-1.514c0.733-0.968,1.548-1.868,2.428-2.694c1.77-1.641,3.752-3.011,5.817-4.194
								c2.063-1.193,4.202-2.212,6.349-3.201c2.153-0.979,4.349-1.893,6.628-2.58c2.274-0.687,4.641-1.148,7.033-1.151
								c2.385-0.001,4.789,0.453,6.965,1.438c2.187,0.956,4.164,2.322,5.966,3.855c1.796,1.545,3.452,3.249,4.937,5.092
								C212.336,198.952,214.647,203.164,216.135,207.652z"/>
						</g>
						<g>
							<path style="fill:#2E2F2E;" d="M175.472,258.49c-0.705,0.679-1.28,1.556-1.388,2.486c-0.127,0.901,0.372,1.828,0.975,2.092
								c0.566,0.274,1.305,0.065,2.249-0.185c0.958-0.272,1.927-0.493,2.907-0.672c1.961-0.352,3.981-0.491,5.932-0.919
								c1.924-0.451,4.007-0.849,5.358-2.104c0.684-0.59,1.12-1.392,1.143-2.024c0.002-0.614-0.355-1.065-1.025-1.431
								c-0.681-0.348-1.563-0.478-2.46-0.554c-0.921-0.064-1.857-0.081-2.794-0.011c-0.94,0.026-1.877,0.154-2.815,0.293
								c-0.934,0.158-1.887,0.286-2.835,0.5C178.829,256.36,176.904,257.099,175.472,258.49z M175.317,258.333
								c1.448-1.389,3.045-2.7,4.881-3.725c1.823-1.061,3.905-1.591,6.009-1.784c1.055-0.079,2.125-0.084,3.19,0.065
								c1.072,0.162,2.207,0.38,3.271,1.043c0.258,0.196,0.522,0.369,0.76,0.597c0.223,0.262,0.474,0.479,0.625,0.816
								c0.379,0.599,0.471,1.391,0.347,2.057c-0.301,1.365-1.266,2.204-2.188,2.762c-0.949,0.563-1.977,0.854-2.967,1.099
								c-0.983,0.199-1.952,0.443-2.915,0.717c-1.923,0.549-3.777,1.387-5.69,2.012c-0.957,0.309-1.925,0.577-2.904,0.793
								c-0.504,0.097-1.068,0.18-1.692,0.136c-0.62-0.029-1.327-0.262-1.836-0.739c-0.996-0.987-1.022-2.324-0.674-3.341
								C173.908,259.813,174.614,259.047,175.317,258.333z"/>
						</g>
						<g>
							<path style="fill:#2E2F2E;" d="M226.309,254.077c0.745,2.53,1.712,5.005,2.535,7.553c0.818,2.548,1.292,5.192,1.43,7.858
								c0.036,0.665,0.045,1.338,0.05,1.999c-0.003,0.637,0.018,1.262,0.126,1.853c0.106,0.588,0.296,1.146,0.645,1.554
								c0.358,0.395,0.893,0.622,1.471,0.577c1.188-0.083,2.188-1.017,2.688-2.15c0.55-1.136,0.711-2.417,0.852-3.709
								c0.238-2.598,0.28-5.182,0.074-7.707c-0.234-2.514-0.854-4.996-1.852-7.208c-0.487-1.107-1.135-2.102-1.944-2.926
								c-0.813-0.818-1.761-1.562-2.852-1.969c-0.544-0.197-1.112-0.285-1.668-0.235c-0.553,0.06-1.053,0.354-1.382,0.835
								c-0.372,0.47-0.438,1.13-0.479,1.758c0.022,0.32,0.038,0.643,0.093,0.962L226.309,254.077z M226.098,254.142l-0.263-0.966
								c-0.079-0.326-0.092-0.665-0.158-0.998c-0.046-0.673-0.039-1.389,0.28-2.065c0.294-0.67,0.912-1.255,1.646-1.516
								c0.728-0.25,1.506-0.298,2.248-0.208c3.006,0.378,5.393,2.742,6.6,5.3c1.23,2.577,1.698,5.352,1.798,8.089
								c0.12,2.742-0.282,5.45-0.953,8.042c-0.295,1.301-0.714,2.63-1.376,3.846c-0.644,1.202-1.783,2.334-3.283,2.516
								c-0.736,0.11-1.566-0.109-2.163-0.631c-0.61-0.511-0.964-1.212-1.205-1.885c-0.241-0.682-0.383-1.372-0.499-2.047
								l-0.319-1.938c-0.417-2.577-0.742-5.151-0.981-7.77C227.235,259.294,226.898,256.654,226.098,254.142z"/>
						</g>
						<g>
							<path style="fill:#2E2F2E;" d="M191.177,199.794c-2.1-0.819-4.421-0.837-6.597-0.453c-2.189,0.393-4.321,0.996-6.368,1.668
								c-2.044,0.693-4.022,1.541-5.814,2.758c-0.886,0.637-1.805,1.284-1.653,2.104c0.075,0.411,0.389,0.825,0.791,1.095
								c0.402,0.258,0.925,0.377,1.452,0.417c1.063,0.035,2.229-0.1,3.358-0.154c1.136-0.059,2.276-0.136,3.418-0.153
								c2.283-0.06,4.578-0.034,6.845,0.184c4.537,0.432,9.017,1.024,13.438,1.726L198.806,210c0.081-0.784-0.234-1.81-0.688-2.785
								c-0.464-0.981-1.05-1.969-1.737-2.893c-0.684-0.928-1.458-1.805-2.319-2.593
								C193.198,200.952,192.241,200.253,191.177,199.794z M191.256,199.589c1.116,0.443,2.119,1.094,3.106,1.76
								c0.987,0.672,1.947,1.397,2.861,2.198c0.898,0.816,1.775,1.691,2.492,2.747c0.701,1.05,1.341,2.292,1.306,3.885l-0.024,1.109
								l-1.214-0.096c-4.554-0.359-8.978-1.336-13.411-1.991c-2.217-0.326-4.424-0.718-6.656-0.956
								c-1.115-0.107-2.235-0.205-3.357-0.229c-1.129-0.041-2.219,0.071-3.414,0.032c-1.155-0.022-2.593-0.573-3.049-1.961
								c-0.249-0.698,0.015-1.514,0.396-2.031c0.382-0.551,0.807-0.935,1.225-1.357c1.704-1.655,3.836-2.866,6.081-3.57
								c2.254-0.707,4.601-0.922,6.918-0.827C186.835,198.412,189.125,198.778,191.256,199.589z"/>
						</g>
					</g>
					<path style="fill:#2E2F2E;" d="M209.047,237.209c-2.763,5.891-5.527,11.782-8.29,17.672c-1.496,3.189-2.992,6.379-4.384,9.615
						c-3.666,8.525-6.6,17.365-8.759,26.39c6.615-24.795,19.258-47.535,32.818-69.323c0.553-0.888,0.931-1.721,0.464-2.677
						C214.952,222.25,211.796,231.35,209.047,237.209z"/>
				</g>
				<g>
					<path style="fill:#2E2F2E;" d="M152.297,237.214c0.904-2.595,1.83-5.208,3.064-7.703c1.221-2.489,2.754-4.893,4.838-6.801
						c2.05-1.945,4.687-3.2,7.389-3.839c2.712-0.658,5.481-0.838,8.219-0.995c5.466-0.309,11.02-0.632,16.464,0.339
						c2.711,0.486,5.369,1.314,7.824,2.562c2.45,1.245,4.697,2.932,6.434,5.063c-1.773-2.101-4.039-3.743-6.495-4.939
						c-2.461-1.2-5.113-1.978-7.809-2.414c-5.416-0.873-10.922-0.461-16.382-0.061c-2.731,0.202-5.465,0.43-8.086,1.113
						c-2.617,0.668-5.078,1.897-6.994,3.775c-1.947,1.842-3.386,4.172-4.534,6.616c-1.161,2.447-2.032,5.036-2.888,7.635
						L152.297,237.214z"/>
				</g>
				<g>
					<path style="fill:#2E2F2E;" d="M222.833,294.271c1.164-3.676,2.102-7.434,2.387-11.265c0.296-3.818-0.126-7.722-1.564-11.288
						c-1.413-3.543-3.893-6.769-7.315-8.585c-3.36-1.826-7.567-2.386-11.186-0.868c3.582-1.605,7.85-1.155,11.314,0.625
						c3.532,1.767,6.162,5.016,7.696,8.618c1.562,3.621,2.091,7.633,1.88,11.551c-0.2,3.932-1.068,7.788-2.158,11.534
						L222.833,294.271z"/>
				</g>
				<g>
					<path style="fill:#2E2F2E;" d="M190.913,191.939c6.136,3.954,11.474,9.161,15.735,15.134c4.276,5.969,7.407,12.757,9.26,19.876
						l-0.576-0.409c3.794-0.334,7.604-0.633,11.431-0.736c3.823-0.089,7.678-0.004,11.477,0.596c3.797,0.59,7.533,1.64,11.016,3.264
						c3.456,1.656,6.677,3.884,9.18,6.771c-2.687-2.708-5.923-4.804-9.406-6.269c-3.469-1.505-7.168-2.436-10.91-2.914
						c-3.749-0.466-7.539-0.582-11.326-0.44c-3.789,0.127-7.573,0.487-11.367,0.815l-0.465,0.04l-0.111-0.45
						c-1.732-7.019-4.829-13.674-8.883-19.67C201.899,201.556,196.791,196.254,190.913,191.939z"/>
				</g>
				<g>
					<path style="fill:#2E2F2E;" d="M171.102,249.761c3.093-1.599,6.245-3.167,9.67-4.039c3.444-0.913,7.027-0.612,10.452-0.85
						c6.851-0.5,13.518-3.444,18.34-8.324l0.366-0.37l0.382,0.362c1.342,1.271,3.364,1.57,5.336,1.721
						c2.003,0.113,4.092,0.274,6.108,0.641c4.05,0.703,8.024,2.043,11.566,4.174c3.519,2.148,6.574,5.111,8.634,8.678
						c2.065,3.544,3.169,7.694,2.811,11.757c0.094-4.072-1.131-8.085-3.297-11.464c-2.107-3.429-5.141-6.213-8.604-8.203
						c-3.471-1.991-7.325-3.291-11.282-3.931c-1.988-0.341-3.959-0.477-6.013-0.575c-1.026-0.073-2.077-0.165-3.117-0.46
						c-1.036-0.278-2.066-0.787-2.883-1.565l0.748-0.008c-2.528,2.502-5.522,4.514-8.766,5.945c-3.24,1.442-6.75,2.273-10.285,2.419
						c-3.521,0.137-7.004-0.222-10.385,0.54C177.49,246.902,174.293,248.366,171.102,249.761z"/>
				</g>
				<g>
					<path style="fill:#2E2F2E;" d="M204.955,247.014c7.436,3.266,13.801,8.762,18.082,15.532
						c-4.587-6.567-11.132-11.674-18.502-14.514L204.955,247.014z"/>
				</g>
				<g>
					<path style="fill:#2E2F2E;" d="M176.562,274.168c3.315-2.163,6.825-4.033,10.451-5.649c1.804-0.83,3.663-1.533,5.528-2.213
						l1.406-0.491l0.706-0.238c0.236-0.074,0.452-0.17,0.797-0.229c0.168-0.025,0.37-0.033,0.585,0.027
						c0.217,0.058,0.407,0.186,0.535,0.306c0.263,0.255,0.37,0.44,0.533,0.644c0.31,0.401,0.599,0.817,0.877,1.239
						c2.196,3.413,3.444,7.334,4.007,11.281c0.281,1.978,0.413,3.966,0.451,5.95c0.001,1.986-0.049,3.965-0.206,5.938
						c-0.094-1.977-0.151-3.951-0.334-5.913c-0.147-1.962-0.372-3.916-0.747-5.836c-0.744-3.827-1.983-7.585-4.095-10.823
						c-0.258-0.407-0.527-0.807-0.814-1.193c-0.138-0.186-0.299-0.421-0.395-0.508c-0.104-0.084-0.077-0.077-0.247-0.071
						c-0.145,0.016-0.391,0.103-0.626,0.177l-0.702,0.223l-1.399,0.463c-1.863,0.627-3.693,1.345-5.532,2.046
						c-1.834,0.714-3.644,1.491-5.432,2.318C180.102,272.409,178.337,273.291,176.562,274.168z"/>
				</g>
				<g>
					<path style="fill:#2E2F2E;" d="M252.043,265.435c0.261,2.334,0.428,4.754-0.246,7.127c-0.627,2.403-2.377,4.415-4.363,5.773
						c-2.003,1.384-4.207,2.32-6.368,3.235c-2.165,0.926-4.36,1.788-6.585,2.585c2.044-1.186,4.118-2.308,6.222-3.364
						c2.097-1.076,4.233-2.042,6.099-3.357c1.883-1.277,3.436-2.988,4.179-5.133C251.742,270.16,251.883,267.785,252.043,265.435z"
						/>
				</g>
				<g>
					<path style="fill:#2E2F2E;" d="M159.68,249.918c0.161,2.195,1.211,4.147,2.443,5.904c1.21,1.785,2.603,3.481,3.676,5.439
						c1.081,1.943,1.791,4.082,2.202,6.268c0.199,1.093,0.314,2.213,0.351,3.316c0.041,1.096,0.056,2.164,0.249,3.168
						c0.297,2.029,1.801,3.567,3.299,5.148c1.509,1.621,2.82,3.457,3.789,5.449c0.964,1.994,1.682,4.105,2.055,6.277
						c0.361,2.171,0.42,4.388,0.122,6.548c0.049-2.177-0.12-4.349-0.651-6.44c-0.47-2.1-1.259-4.117-2.277-5.994
						c-1.046-1.866-2.291-3.601-3.795-5.124c-0.749-0.776-1.534-1.565-2.215-2.487c-0.688-0.907-1.209-2.033-1.408-3.176
						c-0.2-1.141-0.192-2.26-0.217-3.337c-0.02-1.073-0.113-2.124-0.286-3.175c-0.346-2.1-1.043-4.13-1.965-6.053
						c-0.932-1.916-2.241-3.663-3.379-5.538C160.571,254.239,159.587,252.128,159.68,249.918z"/>
				</g>
				<g>
					<path style="fill:#2E2F2E;" d="M162.842,204.094c1.414-3.455,3.871-6.475,6.813-8.816c2.957-2.323,6.464-4.016,10.153-4.59
						c-3.438,1.415-6.626,3.192-9.47,5.454C167.478,198.384,165.011,201.076,162.842,204.094z"/>
				</g>
				<g>
					<path style="fill:#2E2F2E;" d="M262.234,228.329c3.106,4.466,5.042,9.749,5.869,15.159c0.802,5.413,0.505,11.033-1.153,16.214
						c0.801-5.366,0.872-10.76,0.065-16.051C266.233,238.357,264.58,233.221,262.234,228.329z"/>
				</g>
			</g>
			<g>
				<g>
					<g>
						<g>
							<g>
								<g>
									<path style="fill:#2E2F2E;" d="M231.947,84.507c-2.375-5.214-5.869-9.9-10.174-13.642c-2.142-1.882-4.501-3.514-7.088-4.66
										c-2.569-1.143-5.395-1.809-8.15-1.488c-2.766,0.29-5.259,1.714-7.294,3.625c-2.061,1.907-3.776,4.205-5.666,6.399
										c-3.739,4.481-8.792,7.93-14.403,9.691c-0.691,0.211-1.407,0.476-2.306,0.495c-0.918,0.04-1.86-0.452-2.43-1.032
										c-0.604-0.587-1.018-1.203-1.426-1.824c-0.423-0.615-0.786-1.263-1.137-1.911c-1.397-2.605-2.353-5.345-3.519-7.918
										c-1.153-2.564-2.522-5.035-4.562-6.805c-2.019-1.78-4.637-2.817-7.345-3.258c-2.719-0.446-5.538-0.348-8.286,0.116
										c-2.757,0.466-5.453,1.283-7.892,2.563c-2.432,1.285-4.584,3.06-6.089,5.315c-1.527,2.227-2.396,4.9-2.276,7.536
										l-1.398-0.793l7.178-3.867c2.392-1.282,4.845-2.625,7.584-3.456c1.365-0.414,2.804-0.682,4.271-0.708
										c1.447-0.06,3.021,0.226,4.376,0.821c1.379,0.58,2.626,1.455,3.639,2.584c1.021,1.111,1.769,2.557,1.973,4.143
										c0.198,1.594-0.253,3.205-1.103,4.52c-0.886,1.301-2.129,2.246-3.425,2.928c-2.618,1.32-5.512,1.804-8.277,1.882
										c-5.522,0.259-10.948-0.274-16.283,0.06c-2.661,0.169-5.291,0.596-7.777,1.442c-2.49,0.832-4.792,2.148-6.802,3.85
										c-4.033,3.407-6.886,8.135-8.563,13.182c-1.686,5.083-2.273,10.494-2.419,15.889c-0.038,1.351-0.043,2.705-0.039,4.059
										c0.005,1.361,0.023,2.694,0.177,4.016c0.157,1.315,0.435,2.616,0.972,3.789c0.277,0.579,0.609,1.127,1.023,1.601
										c0.423,0.467,0.922,0.85,1.472,1.152l-0.621,0.275c2.426-8.784,7.815-16.671,15.02-22.197
										c3.576-2.8,7.633-4.97,11.927-6.443c2.137-0.761,4.367-1.302,6.643-1.525c2.271-0.216,4.616-0.072,6.817,0.653
										c2.212,0.708,4.193,2.108,5.625,3.938c1.43,1.817,2.323,4.172,2.08,6.548c-0.221,2.38-1.564,4.501-3.244,6.064
										c-1.687,1.589-3.667,2.774-5.67,3.83c-8.01,4.161-16.366,7.677-24.829,10.728c-4.152,1.595-8.297,3.499-11.237,6.739
										c-2.937,3.236-4.429,7.535-5.662,11.806c-1.286,4.285-2.217,8.669-2.93,13.078c-0.376,2.204-0.599,4.427-0.842,6.647
										c-0.153,2.228-0.333,4.453-0.345,6.686c-0.208,8.921,0.958,17.866,3.553,26.369c1.32,4.247,3.066,8.341,5.082,12.293
										c2.072,3.924,4.527,7.644,7.304,11.103l-1.845,0.81c-0.595-3.899,0.338-7.91,2.336-11.237
										c1.001-1.666,2.272-3.179,3.78-4.429c1.499-1.245,3.289-2.217,5.089-2.847c1.797-0.649,3.581-1.082,5.24-1.665
										c1.674-0.566,3.138-1.327,4.513-2.4c1.377-1.051,2.649-2.31,3.954-3.594l3.912-3.849l7.823-7.697
										c0.656-0.639,1.266-1.239,1.717-1.868c0.458-0.634,0.712-1.242,0.807-1.99c0.198-1.474-0.229-3.291-0.542-5.061
										c-1.365-7.076-3.77-13.949-7.077-20.352l-0.98-1.898l2.122,0.238c2.572,0.288,4.927,1.533,6.764,3.191
										c1.85,1.666,3.268,3.731,4.238,5.984c0.959,2.237,1.504,4.596,1.838,6.932c0.334,2.341,0.466,4.671,0.593,6.967
										l-1.292-1.04c4.606-0.734,8.88-3.182,12.138-6.569c3.271-3.384,5.609-7.701,6.518-12.325
										c0.928-4.638,0.535-9.522-0.898-14.066c-0.716-2.275-1.688-4.473-2.884-6.543c-0.599-1.034-1.256-2.034-1.959-3.002
										c-0.713-0.959-1.467-1.873-2.276-2.833c-0.79-0.962-1.59-1.948-2.271-3.067c-0.68-1.107-1.27-2.364-1.434-3.787
										c-0.162-1.409,0.163-2.927,1.016-4.109c0.829-1.199,2.063-1.997,3.326-2.472c1.273-0.488,2.618-0.67,3.954-0.633
										c1.355,0.057,2.625,0.392,3.86,0.822c1.22,0.473,2.366,1.108,3.424,1.855c1.05,0.76,1.992,1.646,2.855,2.595
										c1.701,1.924,3.005,4.153,3.927,6.522c0.908,2.388,1.381,4.887,1.599,7.385c0.417,5.015-0.221,9.973-0.851,14.844
										l-0.688-0.649c2.051-0.379,4.005-1.284,5.691-2.576c1.704-1.271,3.172-2.866,4.472-4.581
										c1.294-1.722,2.426-3.584,3.434-5.505c1.021-1.915,1.906-3.906,2.639-5.952c1.505-4.08,2.431-8.376,2.809-12.717
										c0.377-4.345,0.15-8.741-0.643-13.04l0.216-0.043c0.882,4.303,1.199,8.725,0.905,13.119
										c-0.295,4.39-1.145,8.756-2.591,12.927c-0.704,2.092-1.563,4.133-2.564,6.103c-0.988,1.976-2.102,3.894-3.405,5.701
										c-1.319,1.79-2.822,3.475-4.616,4.852c-1.771,1.395-3.881,2.421-6.137,2.868l-0.781,0.154l0.093-0.804
										c0.565-4.875,1.116-9.764,0.647-14.575c-0.242-2.396-0.73-4.767-1.604-6.972c-0.891-2.202-2.139-4.262-3.724-6.006
										c-0.803-0.859-1.672-1.654-2.626-2.324c-0.962-0.656-1.987-1.207-3.064-1.618c-1.086-0.367-2.225-0.653-3.333-0.687
										c-1.119-0.021-2.257,0.145-3.279,0.55c-1.021,0.391-1.939,1.024-2.503,1.864c-0.585,0.82-0.805,1.879-0.682,2.898
										c0.124,1.033,0.591,2.064,1.205,3.038c0.606,0.98,1.365,1.908,2.143,2.838c0.784,0.914,1.605,1.89,2.368,2.9
										c0.752,1.016,1.455,2.068,2.098,3.157c1.283,2.178,2.333,4.497,3.113,6.907c1.561,4.812,2.038,10.035,1.076,15.067
										c-0.955,5.042-3.439,9.758-6.987,13.455c-3.539,3.691-8.226,6.411-13.372,7.242l-1.222,0.197l-0.07-1.237
										c-0.256-4.564-0.548-9.124-2.275-13.134c-0.849-1.965-2.104-3.774-3.678-5.183c-1.569-1.408-3.487-2.392-5.509-2.615
										l1.142-1.66c3.419,6.592,5.91,13.667,7.33,20.959c0.177,0.918,0.344,1.81,0.487,2.761c0.135,0.951,0.227,1.972,0.088,3.05
										c-0.117,1.074-0.593,2.205-1.22,3.045c-0.619,0.859-1.329,1.54-1.978,2.179l-7.859,7.661l-3.929,3.83
										c-1.308,1.273-2.646,2.594-4.184,3.759c-1.513,1.182-3.343,2.12-5.141,2.708c-1.797,0.619-3.579,1.043-5.226,1.633
										c-6.563,2.094-10.888,9.39-9.883,16.136l0.573,3.851l-2.418-3.04c-2.844-3.575-5.353-7.416-7.467-11.464
										c-2.056-4.076-3.84-8.296-5.141-12.67c-2.575-8.751-3.667-17.898-3.364-26.975c0.036-2.272,0.241-4.534,0.42-6.796
										c0.27-2.253,0.519-4.508,0.923-6.741c0.769-4.468,1.758-8.902,3.104-13.23c0.637-2.171,1.37-4.336,2.319-6.432
										c0.952-2.088,2.152-4.113,3.751-5.824c3.213-3.46,7.563-5.361,11.766-6.931c8.508-2.965,16.824-6.36,24.843-10.418
										c1.976-1.03,3.901-2.18,5.504-3.679c1.598-1.478,2.815-3.414,3.025-5.562c0.229-2.136-0.568-4.308-1.901-6.015
										c-1.335-1.719-3.186-3.041-5.262-3.714c-2.083-0.695-4.327-0.847-6.529-0.646c-2.206,0.207-4.389,0.725-6.492,1.466
										c-4.218,1.459-8.193,3.621-11.694,6.39c-7.056,5.468-12.3,13.247-14.625,21.847l-0.143,0.53l-0.478-0.255
										c-0.647-0.346-1.233-0.8-1.732-1.335c-0.489-0.544-0.874-1.162-1.19-1.804c-0.614-1.297-0.922-2.683-1.106-4.06
										c-0.18-1.377-0.216-2.767-0.239-4.122c-0.023-1.363-0.036-2.727-0.015-4.093c0.075-5.453,0.591-10.984,2.264-16.266
										c1.672-5.259,4.568-10.24,8.817-13.929c2.112-1.839,4.593-3.3,7.248-4.224c2.651-0.94,5.43-1.421,8.186-1.632
										c5.522-0.428,10.977,0.072,16.318-0.196c2.651-0.08,5.245-0.563,7.495-1.704c1.098-0.584,2.067-1.354,2.714-2.31
										c0.609-0.964,0.93-2.128,0.783-3.238c-0.285-2.259-2.238-4.24-4.473-5.165c-2.232-0.991-4.859-0.75-7.314-0.008
										c-2.48,0.736-4.844,1.998-7.238,3.27l-7.197,3.831l-1.337,0.712l-0.061-1.504c-0.127-3.123,0.914-6.179,2.639-8.671
										c1.706-2.529,4.136-4.5,6.781-5.876c2.66-1.379,5.539-2.227,8.441-2.703c2.912-0.476,5.913-0.572,8.866-0.073
										c2.936,0.494,5.871,1.652,8.171,3.699c2.312,2.042,3.779,4.748,4.936,7.407c1.168,2.673,2.082,5.389,3.376,7.868
										c0.324,0.617,0.658,1.23,1.042,1.803c0.369,0.584,0.766,1.167,1.193,1.585c0.442,0.427,0.873,0.652,1.41,0.648
										c0.546,0.006,1.214-0.199,1.89-0.405c5.379-1.62,10.243-4.835,13.918-9.13c1.884-2.129,3.647-4.441,5.834-6.418
										c1.092-0.982,2.298-1.876,3.64-2.537c1.338-0.665,2.807-1.079,4.29-1.218c2.986-0.282,5.935,0.498,8.566,1.733
										c2.646,1.239,5.029,2.968,7.158,4.919c4.288,3.887,7.712,8.696,9.989,13.987L231.947,84.507z"/>
								</g>
								<g>
									<path style="fill:#2E2F2E;" d="M199.934,104.782c-1.11-0.449-1.631-1.144-2.166-1.667c-0.534-0.559-0.95-0.989-1.538-1.362
										c-1.288-0.864-2.476-1.805-3.693-2.401c-0.603-0.286-1.331-0.487-2.088-0.8c-0.742-0.295-1.581-0.779-2.126-1.527
										c-0.272-0.37-0.499-0.796-0.596-1.287c-0.107-0.482-0.05-1.035,0.156-1.491c0.441-0.956,1.327-1.403,2.082-1.668
										c0.791-0.273,1.555-0.365,2.301-0.502c0.756-0.119,1.514-0.224,2.274-0.305c1.52-0.161,3.048-0.236,4.572-0.217
										c3.049,0.035,6.081,0.45,9.009,1.217c-2.969-0.591-5.998-0.819-8.999-0.673c-1.501,0.072-2.994,0.235-4.472,0.482
										c-0.739,0.124-1.473,0.271-2.204,0.431c-0.731,0.178-1.471,0.321-2.099,0.586c-0.635,0.257-1.173,0.651-1.336,1.122
										c-0.179,0.467-0.011,1.003,0.378,1.462c0.755,0.943,2.221,1.081,3.787,1.667c1.548,0.652,2.793,1.552,4.066,2.29
										c0.723,0.392,1.423,1.004,1.962,1.508c0.545,0.514,1.094,0.97,1.426,1.044L199.934,104.782z"/>
								</g>
								<g>
									<path style="fill:#2E2F2E;" d="M218.865,105.09c4.794,3.387,8.428,8.604,9.925,14.559l-2.165,0.408
										C225.954,114.496,223.199,109.05,218.865,105.09z"/>
								</g>
								<g>
									<path style="fill:#2E2F2E;" d="M235.152,103.71c0.985,4.5,1.334,9.193,1.002,13.892l-2.179-0.326
										C235.002,112.894,235.409,108.31,235.152,103.71z"/>
								</g>
							</g>
							<g>
								<g>
									<path style="fill:#2E2F2E;" d="M114.583,156.921c-1.094,0.613-2.157,1.305-3.049,2.162
										c-0.898,0.848-1.567,1.884-1.893,2.966c-0.172,0.536-0.245,1.081-0.245,1.593c0,0.257,0.03,0.508,0.087,0.747
										c0.021,0.124,0.053,0.252,0.064,0.248c0.028,0.019-0.072-0.147-0.158-0.18c-0.163-0.035,0.215-0.005,0.449-0.014
										c0.255-0.013,0.513-0.037,0.776-0.09c0.522-0.112,1.072-0.258,1.629-0.468c1.121-0.396,2.313-0.92,3.608-1.256
										c1.294-0.327,2.576-0.421,3.823-0.584c2.495-0.263,4.888-1.035,7.065-2.203c0.557-0.296,1.068-0.587,1.52-0.941
										c0.47-0.346,0.905-0.751,1.326-1.153c0.82-0.822,1.549-1.759,1.918-2.691c0.148-0.457,0.252-0.909,0.132-1.234
										c-0.093-0.333-0.271-0.629-0.65-0.892l-0.266-0.202l-0.337-0.17c-0.222-0.128-0.445-0.243-0.669-0.29l-0.332-0.111
										l-0.37-0.046l-0.37-0.05l-0.396,0.003c-2.154-0.007-4.497,0.913-6.836,1.682
										C119.064,154.586,116.753,155.645,114.583,156.921z M114.474,156.73c2.172-1.261,4.136-2.867,6.289-4.28
										c2.155-1.398,4.55-2.596,7.465-2.735c0.359-0.034,0.732,0.003,1.111,0.064c0.188,0.028,0.376,0.048,0.564,0.085l0.565,0.18
										c0.391,0.108,0.727,0.28,1.051,0.467c0.166,0.091,0.329,0.178,0.489,0.284l0.469,0.39c0.621,0.497,1.158,1.331,1.305,2.224
										c0.186,0.918-0.079,1.743-0.362,2.444c-0.649,1.376-1.611,2.385-2.665,3.225c-0.539,0.408-1.089,0.792-1.696,1.098
										c-0.604,0.33-1.24,0.568-1.836,0.772c-2.432,0.86-4.95,1.371-7.435,1.802c-1.233,0.232-2.448,0.539-3.535,1.038
										c-1.087,0.486-2.099,1.201-3.294,1.785c-0.6,0.279-1.24,0.559-1.951,0.701c-0.353,0.078-0.721,0.123-1.093,0.146
										c-0.189,0.006-0.373,0-0.567-0.008c-0.208-0.02-0.488-0.038-0.842-0.214c-0.374-0.17-0.676-0.606-0.753-0.881
										c-0.102-0.299-0.111-0.485-0.133-0.672c-0.034-0.383-0.02-0.765,0.032-1.134c0.088-0.744,0.369-1.426,0.708-2.037
										c0.697-1.228,1.754-2.121,2.82-2.832C112.257,157.925,113.386,157.361,114.474,156.73z"/>
								</g>
							</g>
							<g>
								<g>
									<path style="fill:#2E2F2E;" d="M108.662,185.668c-0.466,0.799-0.674,1.728-0.678,2.639
										c-0.005,0.917,0.199,1.815,0.45,2.677c0.122,0.434,0.274,0.857,0.407,1.283c0.144,0.417,0.312,0.917,0.387,0.945
										c0.074,0.036,0.044,0.071,0.329,0.061c0.252-0.034,0.623-0.141,0.959-0.315c0.676-0.348,1.517-0.925,2.281-1.42
										c0.781-0.516,1.532-1.078,2.243-1.684c1.411-1.222,2.659-2.632,3.717-4.16c0.535-0.757,1.018-1.545,1.469-2.313
										c0.426-0.758,0.86-1.58,0.95-2.212c0.049-0.33-0.038-0.427-0.053-0.4c-0.069-0.064-0.315-0.194-0.601-0.22
										c-0.6-0.079-1.436,0.041-2.241,0.271c-1.65,0.433-3.307,1.186-5.033,1.845c-0.851,0.358-1.714,0.731-2.51,1.212
										C109.952,184.358,109.158,184.911,108.662,185.668z M108.471,185.559c0.532-0.821,1.226-1.47,1.897-2.155
										c0.683-0.671,1.374-1.354,2.122-1.974c1.474-1.286,3.195-2.242,5.147-2.868c0.99-0.266,2.049-0.519,3.308-0.273
										c0.628,0.14,1.295,0.401,1.847,1.044c0.302,0.336,0.47,0.816,0.503,1.203c0.047,0.402-0.006,0.755-0.082,1.055
										c-0.328,1.206-0.927,2.005-1.535,2.796c-0.619,0.771-1.32,1.442-2.014,2.1c-1.408,1.299-2.816,2.544-4.138,3.889
										c-0.658,0.675-1.299,1.372-1.936,2.082c-0.669,0.712-1.227,1.396-2.126,2.069c-0.468,0.301-0.966,0.597-1.647,0.691
										c-0.336,0.047-0.729,0.049-1.143-0.086c-0.419-0.132-0.784-0.433-1.031-0.776c-0.242-0.353-0.329-0.693-0.393-0.959
										c-0.05-0.265-0.08-0.494-0.116-0.744c-0.075-0.488-0.085-0.989-0.093-1.484
										C107.076,189.173,107.543,187.215,108.471,185.559z"/>
								</g>
							</g>
						</g>
						<path style="fill:#2E2F2E;" d="M113.509,215.287c-0.809-7.383,1.898-14.684,5.073-21.398
							c7.04-14.888,16.994-28.557,26.72-41.794c4.371-5.948,8.998-11.782,12.242-18.413c7.432-15.193,7.126-33.564,16.037-47.939
							c1.12-1.806,3.235-3.747,5.067-2.67c-4.004,9.115-8.016,18.01-11.045,27.499c-3.825,11.984-8.399,23.017-15.019,33.738
							c-6.391,10.349-14.217,19.701-21.261,29.595C122.502,186.293,114.702,200.127,113.509,215.287z"/>
					</g>
					<g>
						<path style="fill:#2E2F2E;" d="M145.236,166.8c1.249,2.527,2.356,5.124,3.398,7.747c1.014,2.634,1.924,5.31,2.751,8.012
							c0.416,1.354,0.8,2.703,1.143,4.09c0.166,0.702,0.303,1.453,0.235,2.245c-0.062,0.8-0.413,1.574-0.853,2.18
							c-0.44,0.621-0.943,1.136-1.411,1.654l-1.425,1.559l-2.85,3.118l-5.781,6.168c-1.948,2.028-4.106,4.071-6.801,5.203
							c-2.647,1.167-5.445,1.685-8.134,2.454c-2.685,0.715-5.384,1.745-7.348,3.814c1.779-2.248,4.537-3.442,7.191-4.33
							c2.687-0.879,5.454-1.498,7.935-2.707c2.481-1.182,4.531-3.076,6.429-5.123l5.701-6.226l2.887-3.084l1.443-1.542
							c0.482-0.519,0.969-1.013,1.349-1.539c0.386-0.528,0.638-1.082,0.697-1.693c0.061-0.615-0.039-1.273-0.19-1.939
							c-0.33-1.347-0.669-2.72-1.028-4.073c-0.722-2.712-1.539-5.401-2.444-8.061C147.261,172.055,146.257,169.427,145.236,166.8z"
							/>
					</g>
					<g>
						<path style="fill:#2E2F2E;" d="M128.373,88.1c-4.303,0.524-8.07,2.897-10.981,5.929c-2.935,3.048-5.18,6.711-6.849,10.608
							c-1.735,3.871-2.869,7.997-3.514,12.199c-0.331,2.102-0.486,4.233-0.501,6.366c-0.052,2.136,0.084,4.274,0.307,6.413
							c-1.829-8.412-0.809-17.475,2.701-25.421c1.788-3.943,4.094-7.74,7.261-10.763c1.588-1.493,3.358-2.809,5.31-3.783
							C124.081,88.728,126.219,88.135,128.373,88.1z"/>
					</g>
					<g>
						<path style="fill:#2E2F2E;" d="M155.714,163.008c1.244,1.24,2.355,2.619,3.323,4.095c0.966,1.476,1.817,3.039,2.481,4.684
							c1.336,3.283,2.075,6.827,2.105,10.399l-0.682-0.415c3.766-2.028,7.04-4.969,9.406-8.518c1.159-1.785,2.156-3.684,2.832-5.703
							c0.648-2.021,1.109-4.122,1.181-6.258c0.18-4.263-0.649-8.574-2.303-12.553c-1.63-3.996-4.011-7.682-6.889-10.95
							c3.095,3.057,5.734,6.655,7.508,10.684c0.89,2.007,1.642,4.094,2.092,6.26c0.465,2.161,0.651,4.385,0.579,6.603
							c-0.158,4.438-1.579,8.854-4.109,12.516c-2.508,3.675-5.937,6.683-9.861,8.742l-0.701,0.368l0.018-0.782
							c0.079-3.449-0.518-6.922-1.722-10.18c-0.606-1.627-1.327-3.218-2.211-4.724C157.876,165.77,156.856,164.341,155.714,163.008z
							"/>
					</g>
					<g>
						<path style="fill:#2E2F2E;" d="M179.517,85.817c2.514-0.094,4.893-1.023,6.947-2.382c2.081-1.333,3.916-3.019,5.629-4.814
							c1.695-1.815,3.385-3.678,5.223-5.416c1.837-1.73,3.877-3.343,6.261-4.389c2.383-1.034,5.073-1.368,7.625-0.993
							c2.555,0.37,5.011,1.298,7.155,2.689c2.154,1.383,4.013,3.15,5.621,5.091c1.582,1.967,2.956,4.079,4.136,6.288
							c-1.393-2.079-2.849-4.117-4.544-5.934c-1.662-1.837-3.542-3.485-5.657-4.723c-2.117-1.218-4.433-2.118-6.843-2.417
							c-2.406-0.318-4.856,0.027-7.057,1.008c-2.226,0.94-4.201,2.446-6.017,4.113c-1.832,1.664-3.49,3.528-5.306,5.277
							c-1.811,1.748-3.751,3.405-5.949,4.679C184.546,85.134,182.036,85.976,179.517,85.817z"/>
					</g>
					<g>
						<path style="fill:#2E2F2E;" d="M138.352,132.671c-1.648,0.848-3.325,1.631-4.987,2.449l-5.033,2.343
							c-3.353,1.561-6.751,3.04-10.13,4.524c-1.68,0.733-3.319,1.528-4.735,2.607c-1.426,1.065-2.569,2.471-3.531,3.996
							c-0.942,1.544-1.668,3.232-2.262,4.97c-0.64,1.726-1.111,3.516-1.645,5.29c0.603-3.641,1.362-7.336,3.174-10.685
							c0.898-1.665,2.122-3.189,3.625-4.396c1.514-1.194,3.234-2.03,4.929-2.79c3.407-1.466,6.804-2.914,10.241-4.292l5.154-2.062
							C134.886,133.976,136.605,133.292,138.352,132.671z"/>
					</g>
					<g>
						<path style="fill:#2E2F2E;" d="M150.296,63.687c2.624-0.554,5.436-0.331,8.017,0.577c2.594,0.884,4.947,2.479,6.782,4.542
							c1.86,2.086,2.944,4.652,3.911,7.125c0.984,2.482,1.901,4.992,2.754,7.529c-1.247-2.369-2.428-4.766-3.544-7.191
							c-1.127-2.409-2.215-4.829-3.948-6.737c-1.695-1.935-3.859-3.469-6.26-4.468C155.603,64.073,152.973,63.56,150.296,63.687z"/>
					</g>
					<g>
						<path style="fill:#2E2F2E;" d="M175.281,123.93c3.502-1.125,7.483-0.317,10.604,1.665c3.195,1.961,5.502,5.156,6.83,8.611
							c1.35,3.466,1.909,7.208,1.842,10.887c-0.041,3.686-0.521,7.324-1.049,10.923l-0.722-0.415
							c2.139-1.593,4.025-3.541,5.572-5.736c1.575-2.179,2.799-4.616,3.668-7.191c-0.618,2.649-1.733,5.189-3.195,7.51
							c-1.49,2.306-3.344,4.388-5.493,6.128l-0.858,0.695l0.136-1.11c0.441-3.607,0.893-7.208,0.876-10.806
							c-0.028-3.585-0.421-7.188-1.701-10.526c-1.265-3.307-3.316-6.393-6.277-8.399
							C182.588,124.178,178.868,123.116,175.281,123.93z"/>
					</g>
				</g>
				<g>
					<path style="fill:#2E2F2E;" d="M131.966,145.17c2.14-1.09,4.351-2.035,6.584-2.931c2.247-0.857,4.532-1.62,6.843-2.302
						c2.309-0.69,4.664-1.216,7.028-1.689l1.789-0.328c0.315-0.047,0.658-0.085,1.031-0.043c0.368,0.035,0.781,0.191,1.078,0.422
						c0.604,0.473,0.901,0.963,1.296,1.43c0.379,0.474,0.764,0.944,1.112,1.441c2.827,3.944,5.037,8.337,6.413,12.98
						c0.684,2.321,1.188,4.692,1.493,7.085c0.269,2.397,0.383,4.811,0.227,7.208c-0.093-2.398-0.315-4.784-0.761-7.128
						c-0.409-2.348-0.998-4.66-1.767-6.908c-1.515-4.5-3.666-8.789-6.496-12.59c-0.332-0.49-0.702-0.953-1.065-1.421
						c-0.363-0.456-0.729-0.991-1.081-1.256c-0.595-0.533-1.938-0.054-3.086,0.091c-2.348,0.42-4.671,0.963-6.992,1.52
						C140.981,141.915,136.435,143.421,131.966,145.17z"/>
				</g>
				<g>
					<path style="fill:#2E2F2E;" d="M122.491,103.653c3.158-2.116,6.611-3.783,10.172-5.14c3.576-1.327,7.275-2.309,11.01-3.069
						c7.485-1.506,15.105-2.025,22.676-2.541c1.867-0.098,3.89-0.31,5.855,0.402c1.954,0.759,3.319,2.149,4.808,3.328
						c2.896,2.499,5.591,5.237,7.971,8.229c2.372,2.997,4.479,6.196,6.291,9.55c1.757,3.383,3.249,6.901,4.35,10.537
						c-2.636-7.122-6.458-13.763-11.297-19.551c-2.449-2.865-5.078-5.578-7.963-8.001c-1.47-1.157-2.886-2.508-4.521-3.104
						c-1.653-0.595-3.536-0.412-5.425-0.292c-7.573,0.424-15.139,0.957-22.587,2.271C136.401,97.582,129.063,99.815,122.491,103.653
						z"/>
				</g>
				<g>
					<path style="fill:#2E2F2E;" d="M113.787,173.96c1.661-0.742,3.354-1.407,5.053-2.06c1.698-0.658,3.428-1.226,5.158-1.795
						c1.735-0.553,3.472-1.109,5.236-1.565c1.76-0.47,3.53-0.908,5.307-1.312l0.495-0.113l0.121,0.504
						c1.184,4.934,1.825,9.995,2,15.06c0.134,5.067-0.171,10.146-1.079,15.115c0.387-5.031,0.486-10.066,0.143-15.071
						c-0.302-5.007-1.022-9.976-2.073-14.875l0.616,0.391c-1.771,0.375-3.534,0.783-5.291,1.223
						c-1.752,0.453-3.515,0.873-5.261,1.358c-1.751,0.47-3.482,1.005-5.224,1.513C117.246,172.846,115.521,173.41,113.787,173.96z"
						/>
				</g>
			</g>
			<g>
				<g>
					<path style="fill:#2E2F2E;" d="M245.281,118.002c-2.264,0.683-4.533,1.335-6.753,2.125c-2.232,0.748-4.428,1.596-6.56,2.57
						c-2.117,1.001-4.209,2.059-6.164,3.328c-1.935,1.266-3.758,2.753-5.003,4.635c-0.623,0.931-1.115,1.95-1.363,3.035
						c-0.254,1.084-0.296,2.219-0.158,3.337c0.268,2.25,1.268,4.386,2.6,6.248c1.355,1.856,3.134,3.415,5.049,4.756
						c1.9,1.378,3.966,2.53,5.999,3.737c-2.149-0.986-4.268-2.042-6.299-3.288c-2.008-1.273-3.903-2.792-5.424-4.692
						c-1.519-1.89-2.573-4.185-2.919-6.63c-0.169-1.221-0.143-2.482,0.126-3.703c0.263-1.225,0.797-2.378,1.475-3.412
						c1.406-2.055,3.36-3.583,5.377-4.865c2.035-1.262,4.16-2.362,6.367-3.258c2.206-0.895,4.456-1.663,6.736-2.31
						C240.656,118.994,242.957,118.444,245.281,118.002z"/>
				</g>
				<g>
					<g>
						<path style="fill:#2E2F2E;" d="M268.597,85.343c-0.975,0.447-1.911,0.989-2.902,1.438c-0.986,0.457-2.057,0.766-3.146,0.86
							c-2.188,0.203-4.347-0.255-6.452-0.694c-4.222-0.89-8.472-1.658-12.755-2.148c-4.281-0.485-8.602-0.685-12.897-0.392
							c-4.285,0.312-8.559,1.119-12.55,2.708c-3.991,1.569-7.698,3.9-10.664,6.99c-2.993,3.06-5.291,6.767-6.835,10.747
							c-3.098,7.939-3.15,17.161,0.518,24.848l-0.954,0.031c1.426-3.692,2.915-7.386,4.797-10.916
							c1.879-3.516,4.171-6.905,7.221-9.613c1.512-1.358,3.223-2.508,5.059-3.409c1.847-0.884,3.81-1.494,5.796-1.892
							c3.985-0.8,8.017-0.793,11.961-0.818c3.955-0.014,7.855-0.047,11.666-0.783c3.828-0.704,7.621-1.838,11.563-2.604
							c1.991-0.38,3.931-0.675,6.071-0.717c1.081,0.024,2.146,0.201,3.186,0.549c1.028,0.361,2.078,0.878,2.893,1.845
							c0.4,0.48,0.714,1.09,0.831,1.745c0.123,0.654,0.062,1.302-0.129,1.922c-0.418,1.243-1.305,2.09-2.158,2.737
							c-0.875,0.666-1.769,1.105-2.65,1.608c-0.872,0.521-1.805,0.911-2.712,1.359c-7.392,3.36-15.349,4.615-22.963,6.472
							c-3.813,0.931-7.574,2.017-11.136,3.543c-3.554,1.469-6.865,3.577-9.394,6.378c-1.248,1.403-2.271,2.994-2.888,4.725
							c-0.627,1.728-0.81,3.586-0.568,5.41c0.491,3.677,2.579,7.059,5.101,9.919c5.162,5.739,12.073,9.938,19.563,11.936
							l-0.956,0.605c2.451-12.579,9.384-24.077,18.944-32.462c4.786-4.194,10.243-7.628,16.135-10.031
							c0.742-0.286,1.475-0.595,2.229-0.847c0.754-0.241,1.456-0.597,2.402-0.669c0.456-0.032,1.027,0.075,1.44,0.446
							c0.421,0.368,0.589,0.88,0.658,1.322c0.114,0.907-0.023,1.706-0.223,2.527c-0.424,1.629-1.368,3.023-2.394,4.255
							c-1.046,1.229-2.219,2.312-3.387,3.373c-4.657,4.192-8.78,8.991-11.964,14.382c-3.184,5.371-5.397,11.379-5.966,17.607
							c-0.113,1.55-0.24,3.126-0.112,4.656c0.135,1.515,0.542,3.056,1.564,4.126c1.014,1.081,2.559,1.496,4.07,1.831
							c1.532,0.34,3.073,0.641,4.62,0.904c6.191,1.041,12.49,1.428,18.76,1.148l-0.346,0.433
							c-2.264-12.825-0.173-26.429,6.315-37.83c0.897-1.39,2.006-2.689,3.42-3.653c1.418-0.942,3.108-1.517,4.851-1.466
							c1.743,0.015,3.499,0.869,4.585,2.25c1.113,1.367,1.629,3.058,1.87,4.711c0.405,3.349-0.157,6.662-1.1,9.805
							c-0.95,3.149-2.295,6.129-3.627,9.077c-1.332,2.947-2.679,5.875-3.66,8.909c-0.483,1.524-0.949,3.045-0.998,4.552
							c-0.078,1.498,0.303,3.01,1.395,3.771c1.078,0.769,2.7,0.748,4.239,0.614c1.553-0.146,3.106-0.49,4.68-0.853
							c1.573-0.362,3.179-0.734,4.844-0.927c1.67-0.182,3.396-0.143,5.051,0.195c6.664,1.329,12.288,6.363,14.599,12.722
							c0.561,1.597,0.915,3.277,0.995,4.981c0.041,0.828-0.013,1.763-0.053,2.494c-0.026,0.767-0.004,1.533,0.121,2.239
							c0.117,0.699,0.381,1.355,0.732,1.619c0.169,0.138,0.359,0.2,0.616,0.215c0.227,0.008,0.454-0.052,0.702-0.189
							c0.5-0.283,0.98-0.823,1.411-1.454c0.451-0.624,0.861-1.282,1.235-1.965c1.516-2.729,2.482-5.802,3.672-8.846
							c0.596-1.524,1.255-3.055,2.064-4.521c0.804-1.466,1.727-2.85,2.703-4.177c1.956-2.653,4.113-5.084,6.087-7.596
							c1.987-2.5,3.703-5.139,5.05-8c2.699-5.699,4.035-12.053,3.813-18.351c-0.029-1.576-0.22-3.142-0.443-4.699
							c-0.236-1.547-0.586-3.024-1.365-4.097c-0.76-1.064-2.039-1.767-3.472-2.277c-1.442-0.504-3.022-0.927-4.554-1.312
							c-3.091-0.761-6.237-1.301-9.404-1.614c-1.584-0.155-3.173-0.252-4.764-0.292c-1.603-0.049-3.147,0-4.826,0.016
							c-1.658-0.006-3.513-0.123-5.236-1.012c-0.902-0.479-1.637-1.164-2.19-1.983c-0.545-0.819-0.936-1.793-0.949-2.886
							c-0.035-1.087,0.462-2.26,1.258-2.995c0.798-0.763,1.761-1.138,2.644-1.368c0.89-0.227,1.765-0.317,2.574-0.387
							c0.819-0.079,1.641-0.138,2.463-0.184c6.557-0.365,13.363,0.33,19.535,3.065c3.07,1.368,5.919,3.25,8.361,5.588
							c2.438,2.336,4.457,5.166,5.731,8.343l-1.981-0.285c1.827-2.31,2.776-5.26,2.875-8.254c0.106-3-0.582-6.045-1.894-8.771
							c-1.298-2.744-3.302-5.081-5.723-6.965c-2.402-1.897-5.189-3.305-8.113-4.323c-5.887-2.047-12.258-2.35-18.557-1.901
							c-3.158,0.215-6.319,0.602-9.491,1.018l-4.771,0.626l-2.405,0.296c-0.835,0.093-1.677,0.141-2.528,0.136
							c-1.694-0.027-3.458-0.207-5.16-1.026c-0.84-0.412-1.654-1.026-2.245-1.85c-0.59-0.826-0.924-1.791-1-2.795
							c-0.077-1.006,0.151-1.991,0.524-2.841c0.372-0.857,0.876-1.607,1.432-2.284c1.108-1.341,2.466-2.449,3.822-3.34
							c5.387-3.791,11.649-6.199,18.059-7.385c6.426-1.18,12.993-1.223,19.431-0.501c3.193,0.345,6.541,0.852,9.566,2.459
							c0.732,0.385,1.522,0.904,2.141,1.545c0.627,0.64,1.126,1.37,1.54,2.109c0.825,1.487,1.37,3.002,2.044,4.411l-1.458,0.357
							c-0.085-2.83-0.214-5.662-0.914-8.327c-0.679-2.668-2.041-5.104-3.862-7.223c-0.896-1.073-1.871-2.074-2.893-3.065
							c-1.017-0.995-2.046-1.977-3.091-2.938c-2.088-1.926-4.242-3.778-6.5-5.49c-4.497-3.45-9.478-6.237-14.741-8.373
							c-2.618-1.095-5.31-2.014-8.047-2.771c-2.73-0.785-5.518-1.36-8.324-1.798c-5.615-0.868-11.346-1.048-17.006-0.465
							c-1.413,0.163-2.826,0.328-4.225,0.588c-1.406,0.216-2.8,0.506-4.165,0.881c-2.718,0.737-5.355,2.031-7.158,4.219
							c-1.828,2.154-2.802,4.915-3.287,7.694c-0.491,2.797-0.533,5.659-0.442,8.503c0.054,1.422,0.113,2.868-0.088,4.301
							c-0.106,0.713-0.265,1.433-0.6,2.092c-0.325,0.663-0.861,1.226-1.506,1.584c-1.308,0.697-2.758,0.857-4.133,1.203
							C271.252,84.336,269.892,84.761,268.597,85.343z M268.506,85.143c1.307-0.596,2.683-1.033,4.077-1.359
							c1.379-0.351,2.832-0.53,4.059-1.196c1.263-0.665,1.785-2.112,1.955-3.487c0.19-1.401,0.126-2.824,0.064-4.25
							c-0.105-2.855-0.078-5.737,0.405-8.574c0.478-2.818,1.452-5.649,3.331-7.886c1.853-2.273,4.585-3.625,7.339-4.384
							c1.386-0.389,2.791-0.688,4.205-0.912c1.408-0.268,2.83-0.442,4.253-0.613c5.698-0.596,11.472-0.523,17.151,0.294
							c2.838,0.407,5.661,0.953,8.429,1.712c2.775,0.731,5.509,1.626,8.171,2.701c5.344,2.091,10.451,4.866,15.061,8.314
							c2.313,1.71,4.522,3.553,6.655,5.47c1.069,0.957,2.119,1.933,3.156,2.92c1.04,0.982,2.075,2.013,3.024,3.12
							c1.93,2.178,3.473,4.83,4.238,7.696c0.789,2.863,0.951,5.782,1.078,8.646L365.317,97l-1.62-3.289
							c-0.725-1.473-1.299-2.978-2.053-4.285c-0.377-0.652-0.803-1.247-1.306-1.747c-0.508-0.505-1.076-0.871-1.764-1.226
							c-2.69-1.39-5.83-1.848-8.978-2.164c-6.298-0.656-12.689-0.556-18.878,0.632c-6.175,1.194-12.132,3.552-17.215,7.191
							c-1.314,0.877-2.449,1.842-3.38,2.98c-0.91,1.12-1.557,2.425-1.442,3.623c0.049,0.592,0.262,1.195,0.611,1.672
							c0.351,0.479,0.85,0.863,1.447,1.153c1.199,0.587,2.709,0.781,4.202,0.794c0.752,0.003,1.513-0.041,2.27-0.126l2.367-0.295
							l4.763-0.631c3.183-0.421,6.389-0.819,9.627-1.045c6.448-0.469,13.163-0.182,19.445,1.992
							c3.125,1.083,6.144,2.595,8.782,4.673c1.336,1.019,2.527,2.206,3.636,3.49c1.088,1.307,2.001,2.748,2.742,4.269
							c1.468,3.046,2.246,6.433,2.132,9.846c-0.105,3.398-1.191,6.861-3.355,9.602l-1.235,1.564l-0.746-1.849
							c-2.299-5.699-7.244-10.141-12.9-12.656c-5.71-2.523-12.141-3.256-18.461-2.916c-1.56,0.107-3.251,0.17-4.599,0.488
							c-1.384,0.327-2.238,1.091-2.209,2.146c-0.003,1.077,0.857,2.36,1.923,2.904c1.174,0.621,2.655,0.771,4.208,0.774
							c1.556-0.009,3.248-0.055,4.879,0.001c1.643,0.048,3.285,0.154,4.921,0.319c3.271,0.335,6.517,0.903,9.706,1.7
							c1.603,0.411,3.153,0.826,4.764,1.394c1.583,0.573,3.316,1.447,4.464,3.047c1.121,1.586,1.467,3.384,1.722,5.008
							c0.231,1.645,0.425,3.298,0.451,4.959c0.209,6.638-1.217,13.303-4.075,19.288c-1.417,2.993-3.266,5.807-5.314,8.362
							c-2.037,2.566-4.203,4.963-6.104,7.508c-0.951,1.271-1.835,2.579-2.597,3.945c-0.765,1.361-1.401,2.804-1.993,4.287
							c-1.19,2.963-2.189,6.101-3.841,9.033c-0.408,0.732-0.861,1.447-1.362,2.131c-0.49,0.685-1.078,1.425-1.994,1.946
							c-0.927,0.543-2.305,0.576-3.243-0.212c-0.918-0.79-1.161-1.798-1.326-2.664c-0.149-0.89-0.161-1.751-0.127-2.599
							c0.055-0.884,0.099-1.566,0.071-2.355c-0.06-1.53-0.367-3.051-0.867-4.509c-2.047-5.818-7.273-10.567-13.348-11.805
							c-1.516-0.32-3.061-0.366-4.607-0.211c-1.554,0.168-3.109,0.513-4.69,0.865c-1.579,0.351-3.196,0.701-4.868,0.846
							c-0.836,0.07-1.675,0.101-2.555,0.013c-0.87-0.095-1.799-0.339-2.59-0.91c-0.776-0.569-1.349-1.41-1.613-2.287
							c-0.287-0.877-0.343-1.77-0.305-2.631c0.077-1.741,0.595-3.346,1.096-4.893c1.037-3.121,2.425-6.075,3.778-9.01
							c1.354-2.934,2.699-5.86,3.644-8.906c0.94-3.023,1.491-6.239,1.138-9.335c-0.208-1.529-0.679-3.055-1.617-4.219
							c-0.921-1.174-2.33-1.881-3.835-1.914c-1.499-0.06-3.029,0.438-4.3,1.271c-1.276,0.854-2.327,2.05-3.189,3.366
							c-0.864,1.321-1.579,2.758-2.226,4.228c-0.672,1.458-1.258,2.955-1.79,4.47c-1.059,3.032-1.865,6.154-2.386,9.325
							c-1.052,6.339-1.047,12.857,0.064,19.189l0.073,0.415l-0.419,0.018c-6.323,0.264-12.671-0.144-18.906-1.212
							c-1.558-0.269-3.11-0.577-4.653-0.924c-1.517-0.35-3.205-0.769-4.406-2.019c-1.187-1.242-1.616-2.941-1.766-4.528
							c-0.066-0.803-0.092-1.61-0.041-2.401c0.048-0.793,0.035-1.592,0.135-2.381c0.556-6.353,2.787-12.473,5.997-17.937
							c3.208-5.482,7.375-10.366,12.062-14.618c1.16-1.061,2.302-2.128,3.295-3.304c0.978-1.176,1.828-2.48,2.184-3.923
							c0.172-0.699,0.277-1.493,0.181-2.152c-0.108-0.684-0.472-1.011-1.126-0.961c-0.639,0.039-1.389,0.383-2.124,0.636
							c-0.738,0.254-1.455,0.565-2.18,0.853c-5.76,2.415-11.08,5.838-15.731,9.994c-9.29,8.311-15.946,19.629-18.208,31.864
							l-0.15,0.812l-0.806-0.207c-7.808-2.008-15.018-6.281-20.494-12.252c-2.698-2.995-5.01-6.633-5.6-10.86
							c-0.287-2.094-0.077-4.279,0.642-6.273c0.707-2.002,1.864-3.796,3.235-5.347c2.774-3.089,6.312-5.327,10.038-6.887
							c3.706-1.601,7.569-2.724,11.43-3.679c3.864-0.948,7.737-1.746,11.543-2.704c3.801-0.957,7.568-2.028,11.091-3.632
							c0.867-0.423,1.766-0.79,2.595-1.282c0.837-0.47,1.725-0.91,2.427-1.445c0.715-0.527,1.295-1.15,1.51-1.806
							c0.21-0.674,0.108-1.362-0.354-1.908c-0.458-0.566-1.233-1-2.057-1.286c-0.832-0.286-1.739-0.444-2.633-0.467
							c-1.812,0.025-3.805,0.294-5.694,0.652c-3.827,0.718-7.636,1.833-11.592,2.541c-3.976,0.737-8.03,0.765-11.971,0.729
							c-3.949-0.027-7.881-0.075-11.676,0.64c-1.892,0.354-3.738,0.904-5.472,1.706c-1.723,0.82-3.339,1.874-4.785,3.14
							c-2.915,2.52-5.178,5.756-7.058,9.174c-1.885,3.429-3.408,7.066-4.875,10.729l-0.45,1.124l-0.504-1.092
							c-3.709-8.033-3.51-17.49-0.252-25.557c1.627-4.046,4.018-7.798,7.106-10.88c3.063-3.118,6.868-5.424,10.905-7.006
							c4.05-1.591,8.369-2.386,12.687-2.682c4.327-0.276,8.668-0.055,12.962,0.45c4.296,0.511,8.551,1.299,12.774,2.208
							c2.102,0.449,4.235,0.907,6.372,0.718c1.065-0.088,2.099-0.381,3.073-0.827C266.578,86.13,267.516,85.592,268.506,85.143z"/>
					</g>
					<g>
						<path style="fill:#2E2F2E;" d="M314.803,154.68c-0.347,0.937-0.546,1.96-0.425,2.919c0.097,0.981,0.679,1.723,1.413,1.983
							c0.743,0.283,1.806,0.435,2.736,0.667l2.861,0.647c0.925,0.215,1.84,0.385,2.6,0.173c0.371-0.107,0.676-0.328,0.879-0.685
							c0.196-0.364,0.3-0.86,0.385-1.352c0.354-1.966,0.225-4.004-0.235-5.93c-0.475-1.927-1.145-3.767-1.945-5.524
							c-0.418-0.849-0.89-1.792-1.366-2.383c-0.244-0.286-0.5-0.492-0.6-0.505c-0.078-0.018-0.152-0.019-0.427,0.146
							c-0.546,0.325-1.117,1.133-1.638,1.9c-0.516,0.795-1.051,1.632-1.577,2.487C316.407,150.937,315.464,152.762,314.803,154.68z
							 M314.596,154.604c0.672-1.907,1-3.933,1.532-5.947c0.265-1.008,0.579-2.015,1.072-2.977c0.495-0.967,1.043-1.922,2.154-2.786
							c0.14-0.107,0.294-0.206,0.485-0.286c0.172-0.09,0.366-0.162,0.59-0.208c0.419-0.115,0.928-0.09,1.36,0.042
							c0.882,0.287,1.365,0.851,1.74,1.348c0.719,1.048,1.063,1.981,1.462,2.979c0.765,1.979,1.162,4.084,1.221,6.173
							c0.062,2.09-0.042,4.139-0.253,6.186c-0.05,0.508-0.066,1.032-0.261,1.608c-0.178,0.587-0.65,1.12-1.197,1.434
							c-1.117,0.62-2.328,0.617-3.381,0.54c-1.045-0.088-2.083-0.277-3.089-0.572c-0.504-0.147-0.996-0.332-1.478-0.539
							c-0.481-0.193-1.004-0.448-1.496-0.82c-0.496-0.376-0.884-0.928-1.079-1.491c-0.198-0.571-0.209-1.146-0.164-1.68
							C313.919,156.534,314.263,155.568,314.596,154.604z"/>
					</g>
					<g>
						<path style="fill:#2E2F2E;" d="M303.91,65.755c2.926-1.248,6.119-2.028,9.431-1.977c3.298,0.059,6.634,1.187,9.276,3.25
							c0.334,0.259,0.645,0.504,0.981,0.842c0.323,0.332,0.671,0.741,0.853,1.326c0.193,0.582,0.068,1.285-0.253,1.746
							c-0.312,0.468-0.707,0.756-1.084,0.988c-0.781,0.452-1.48,0.707-2.209,1.059l-2.139,1.047
							c-2.832,1.435-5.558,3.065-8.259,4.742c-1.352,0.836-2.691,1.696-4.055,2.51c-1.354,0.814-2.752,1.648-4.318,2.288
							c-0.779,0.318-1.609,0.591-2.461,0.756c-0.83,0.159-1.675,0.294-2.583,0.293c-0.887,0.029-1.899-0.126-2.87-0.679
							c-1.001-0.546-1.695-1.744-1.783-2.775c-0.118-1.042,0.068-1.957,0.302-2.81c0.243-0.852,0.586-1.63,0.969-2.381
							c0.77-1.49,1.757-2.816,2.826-4.045c1.065-1.233,2.241-2.352,3.446-3.417c0.618-0.516,1.216-1.05,1.876-1.511
							C302.501,66.537,303.16,66.069,303.91,65.755z M303.999,65.956c-1.404,0.688-2.573,1.801-3.595,2.987
							c-1.023,1.195-1.901,2.507-2.698,3.844c-0.783,1.347-1.48,2.726-2.081,4.098c-0.267,0.696-0.542,1.384-0.709,2.068
							c-0.163,0.676-0.243,1.358-0.154,1.893c0.092,0.542,0.275,0.85,0.667,1.088c0.404,0.228,1.011,0.387,1.704,0.396
							c0.68,0.036,1.414-0.042,2.147-0.147c0.712-0.102,1.409-0.294,2.111-0.542c1.4-0.498,2.781-1.221,4.219-1.909
							c1.428-0.694,2.882-1.343,4.322-2.016c2.883-1.34,5.741-2.727,8.493-4.309l2.049-1.215c0.652-0.428,1.399-0.843,1.94-1.27
							c0.273-0.217,0.491-0.464,0.587-0.68c0.095-0.215,0.076-0.376-0.006-0.542c-0.155-0.358-0.799-0.776-1.444-1.18
							c-2.526-1.629-5.351-2.734-8.358-3.346C310.201,64.55,306.895,64.656,303.999,65.956z"/>
					</g>
				</g>
				<path style="fill:#2E2F2E;" d="M271.875,82.938c-0.626-0.181-1.268-0.333-1.926-0.452c-1.057-0.192-2.159-0.3-3.195-0.016
					c-1.036,0.284-1.999,1.027-2.29,2.062c-0.335,1.195,0.303,2.493,1.253,3.292c2.376,2.001,5.598,1.798,8.305,2.852
					c2.998,1.168,5.958,3.702,8.468,5.671c5.223,4.099,9.858,8.949,13.696,14.368c2,2.823,3.794,5.806,6.078,8.405
					c2.201,2.504,4.814,4.604,7.366,6.748c8.898,7.477,17.321,15.8,23.046,25.915c5.725,10.115,8.551,22.262,5.769,33.547
					c2.345-11.449,0.575-23.696-4.915-34.012c-5.149-9.675-13.254-17.39-21.271-24.864c-2.741-2.555-5.495-5.11-7.915-7.97
					c-2.941-3.477-5.353-7.361-7.979-11.082c-3.926-5.562-8.851-10.323-12.803-15.784C280.59,87.512,276.712,84.338,271.875,82.938z
					"/>
				<g>
					<path style="fill:#2E2F2E;" d="M200.45,128.939c0.242-4.335,1.619-8.561,3.537-12.451c1.958-3.854,4.243-7.663,7.533-10.604
						c1.639-1.454,3.534-2.648,5.595-3.392c2.055-0.763,4.219-1.124,6.376-1.318c4.328-0.331,8.656,0.009,12.958-0.187
						c4.306-0.161,8.586-0.693,12.81-1.486c2.114-0.398,4.202-0.889,6.285-1.443c2.083-0.549,4.24-1.078,6.478-1.077
						c2.21,0.015,4.555,0.59,6.269,2.157c1.726,1.537,2.453,4.126,1.617,6.306c-0.213,0.539-0.532,1.042-0.944,1.454
						c-0.412,0.408-0.892,0.723-1.382,0.985c-0.99,0.511-1.987,0.89-2.976,1.332l-5.967,2.528l-0.034-0.075l5.828-2.833
						c0.965-0.475,1.974-0.908,2.885-1.423c0.917-0.513,1.653-1.248,1.986-2.199c0.684-1.893-0.01-4.199-1.546-5.482
						c-1.537-1.341-3.669-1.905-5.738-1.897c-2.097-0.002-4.174,0.543-6.264,1.06c-2.098,0.529-4.223,0.999-6.358,1.373
						c-4.273,0.758-8.61,1.116-12.939,1.174c-4.331,0.062-8.651-0.393-12.944,0.02c-2.138,0.205-4.264,0.633-6.233,1.461
						c-1.98,0.796-3.754,2.02-5.304,3.471c-1.575,1.431-2.904,3.115-4.128,4.866c-1.221,1.755-2.311,3.614-3.299,5.517
						c-1.973,3.8-3.495,7.88-4.02,12.172L200.45,128.939z"/>
				</g>
				<g>
					<path style="fill:#2E2F2E;" d="M291.212,134.347c-1.628,2.671-3.01,5.471-4.145,8.362c-1.15,2.886-1.983,5.884-2.604,8.914
						c-0.62,3.032-0.956,6.12-0.998,9.21c-0.032,3.088,0.141,6.185,0.669,9.232l0.099,0.57l-0.573,0.018
						c-1.882,0.06-3.767,0.036-5.645-0.085c-1.877-0.141-3.745-0.369-5.597-0.683c-3.706-0.616-7.339-1.635-10.814-3.013
						c3.581,1.075,7.234,1.842,10.916,2.326c1.842,0.236,3.693,0.386,5.546,0.45c1.851,0.084,3.705,0.09,5.555,0.004l-0.474,0.588
						c-0.558-3.106-0.853-6.27-0.759-9.428c0.085-3.157,0.47-6.303,1.143-9.385c0.671-3.083,1.703-6.078,2.965-8.956
						C287.775,139.598,289.356,136.864,291.212,134.347z"/>
				</g>
				<g>
					<path style="fill:#2E2F2E;" d="M336.85,128.6c3.051,0.109,6.094,0.443,9.12,0.891c3.021,0.483,6.019,1.125,8.98,1.913
						c0.74,0.208,1.474,0.385,2.229,0.646c0.745,0.263,1.517,0.631,2.134,1.257c0.632,0.629,0.95,1.478,1.118,2.259
						c0.174,0.796,0.226,1.554,0.317,2.325c0.275,3.081,0.172,6.201-0.358,9.253c-0.541,3.05-1.495,6.022-2.806,8.824
						c-1.313,2.808-3.026,5.398-4.88,7.83c-1.846,2.443-3.775,4.8-5.528,7.281c-0.887,1.232-1.714,2.506-2.472,3.822
						c-0.738,1.327-1.385,2.705-1.935,4.13c0.844-2.942,2.315-5.676,3.961-8.255c1.678-2.565,3.541-4.993,5.29-7.477
						c1.733-2.493,3.427-5.005,4.655-7.752c1.245-2.735,2.135-5.632,2.632-8.593c0.547-2.953,0.679-5.981,0.445-8.976
						c-0.154-1.482-0.204-3.076-1.121-4.011c-0.927-0.949-2.477-1.286-3.911-1.754c-2.906-0.879-5.86-1.607-8.844-2.196
						C342.898,129.395,339.882,128.957,336.85,128.6z"/>
				</g>
				<g>
					<path style="fill:#2E2F2E;" d="M305.236,94.574c2.216-4.808,6.623-8.301,11.433-10.354c4.87-2.066,10.171-2.795,15.393-3.197
						c5.224-0.369,10.509-0.757,15.778-0.035c5.221,0.707,10.497,2.672,14.355,6.523l-0.788,0.77
						c-3.555-3.683-8.597-5.699-13.687-6.475c-5.135-0.799-10.399-0.512-15.619-0.233c-5.207,0.31-10.466,0.941-15.324,2.901
						C311.977,86.425,307.537,89.808,305.236,94.574z"/>
				</g>
				<g>
					<path style="fill:#2E2F2E;" d="M366.602,132.204c-1.185-4.682-4.23-8.801-8.108-11.725c-3.88-2.972-8.66-4.647-13.53-5.205
						c-2.439-0.296-4.913-0.297-7.367-0.1c-2.443,0.241-4.925,0.549-7.25,1.326c-1.146,0.411-2.263,0.993-3.074,1.905
						c-0.818,0.898-1.228,2.15-1.057,3.365c0.145,1.209,0.823,2.364,1.874,3.014c1.035,0.658,2.363,0.873,3.552,0.515
						c-1.183,0.38-2.525,0.193-3.589-0.456c-1.081-0.64-1.802-1.811-1.974-3.054c-0.2-1.247,0.202-2.567,1.038-3.519
						c0.829-0.966,1.972-1.586,3.135-2.028c2.365-0.839,4.838-1.188,7.306-1.479c2.475-0.245,4.98-0.291,7.464-0.036
						c4.956,0.474,9.896,2.092,13.963,5.088c4.058,2.945,7.33,7.166,8.682,12.109L366.602,132.204z"/>
				</g>
				<g>
					<path style="fill:#2E2F2E;" d="M279.948,79.379c-0.195-2.053-0.215-4.121-0.166-6.189c0.084-2.066,0.283-4.13,0.583-6.181
						c0.285-2.039,0.749-4.165,1.911-6.021c1.154-1.854,2.907-3.231,4.771-4.222c1.884-0.982,3.893-1.631,5.906-2.143
						c2.023-0.492,4.075-0.885,6.149-1.047c2.071-0.176,4.151-0.219,6.22-0.096c2.065,0.162,4.121,0.431,6.126,0.913
						c-4.09-0.495-8.21-0.519-12.252,0.026c-2.018,0.281-4.019,0.671-5.979,1.214c-1.964,0.53-3.895,1.169-5.658,2.107
						c-1.771,0.904-3.381,2.143-4.44,3.786c-1.082,1.632-1.516,3.633-1.923,5.626c-0.396,2.006-0.685,4.035-0.879,6.075
						C280.089,75.266,280,77.319,279.948,79.379z"/>
				</g>
				<g>
					<path style="fill:#2E2F2E;" d="M303.917,170.468c1.43-0.585,2.915-1.029,4.418-1.419c1.51-0.355,3.049-0.61,4.604-0.755
						c3.107-0.29,6.299-0.023,9.322,0.897c3.018,0.947,5.822,2.599,8.027,4.858c1.098,1.13,2.057,2.394,2.808,3.77
						c0.719,1.391,1.264,2.875,1.48,4.408c-0.459-1.474-1.093-2.876-1.944-4.133c-0.818-1.275-1.812-2.428-2.931-3.435
						c-2.236-2.012-4.899-3.542-7.763-4.416c-2.87-0.901-5.913-1.191-8.946-1.108c-1.52,0.04-3.04,0.198-4.55,0.44
						C306.92,169.783,305.421,170.12,303.917,170.468z"/>
				</g>
				<g>
					<path style="fill:#2E2F2E;" d="M247.671,128.602c7.063-6.984,14.888-13.211,23.362-18.47c4.262-2.576,8.88-4.739,13.859-5.686
						c2.482-0.462,5.053-0.581,7.576-0.209c1.262,0.178,2.502,0.499,3.713,0.894c1.202,0.42,2.349,0.941,3.479,1.46
						c4.39,2.295,9.196,3.378,14.128,3.376c4.918,0.094,9.835-0.652,14.787-1.078c4.941-0.466,9.988-0.721,14.933,0.145
						c4.916,0.93,9.612,2.986,13.543,6.026c-4.073-2.835-8.763-4.755-13.633-5.494c-4.88-0.744-9.845-0.401-14.756,0.165
						c-4.917,0.556-9.861,1.279-14.885,1.238c-4.993,0.055-10.146-1.081-14.579-3.381c-1.121-0.524-2.234-1.038-3.374-1.444
						c-1.145-0.381-2.313-0.692-3.509-0.869c-2.389-0.368-4.844-0.275-7.241,0.155c-4.816,0.865-9.336,2.996-13.61,5.428
						c-4.26,2.49-8.346,5.323-12.313,8.284C255.166,122.092,251.36,125.28,247.671,128.602z"/>
				</g>
				<g>
					<path style="fill:#2E2F2E;" d="M300.714,114.885c-13.262,8.598-22.812,22.87-25.675,38.574
						c2.502-15.766,11.746-30.41,25.065-39.492L300.714,114.885z"/>
				</g>
			</g>
			<g>
				<g>
					<path style="fill:#2E2F2E;" d="M361.823,203.355c-2.684-1.403-5.155-3.199-7.873-4.501c-2.68-1.287-5.76-2.061-8.644-1.355
						c-1.428,0.345-2.728,1.112-3.717,2.187c-1.003,1.064-1.702,2.396-2.146,3.79c-0.885,2.821-0.621,5.885-0.017,8.8l0.093,0.449
						l-0.461,0.006c-2.398,0.03-4.787,0.004-7.135,0.273c-2.339,0.268-4.66,0.828-6.743,1.875c-2.044,1.046-3.991,2.623-4.678,4.792
						c-0.338,1.066-0.323,2.237,0.02,3.308c0.35,1.075,0.991,2.056,1.779,2.908c1.578,1.726,3.609,2.986,5.679,4.173
						c2.066,1.198,4.177,2.333,6.246,3.55c2.07,1.213,4.085,2.544,5.936,4.081c1.834,1.553,3.479,3.346,4.728,5.392
						c-1.32-2.003-3.015-3.724-4.884-5.2c-1.885-1.464-3.935-2.695-6.009-3.876c-2.082-1.171-4.212-2.264-6.312-3.428
						c-2.086-1.153-4.235-2.388-5.908-4.214c-0.84-0.898-1.552-1.957-1.953-3.163c-0.395-1.202-0.424-2.541-0.045-3.758
						c0.378-1.223,1.119-2.292,2.014-3.154c0.888-0.878,1.933-1.559,3.02-2.129c2.193-1.13,4.61-1.708,7.021-1.959
						c2.417-0.261,4.828-0.217,7.217-0.232l-0.368,0.454c-0.594-2.977-0.867-6.165,0.093-9.165c0.489-1.478,1.267-2.878,2.365-4.003
						c1.084-1.136,2.516-1.941,4.041-2.277c3.078-0.681,6.238,0.178,8.907,1.593C356.795,199.989,359.188,201.861,361.823,203.355z"
						/>
				</g>
				<g>
					<path style="fill:#2E2F2E;" d="M367.062,211.364c-2.46-1.643-5.117-2.979-7.888-3.975c-2.765-0.949-5.668-1.827-8.558-1.501
						c-1.431,0.156-2.808,0.669-3.946,1.522c-1.131,0.846-2.004,2.045-2.272,3.407c-0.291,1.362,0.013,2.8,0.607,4.09
						c0.596,1.299,1.451,2.486,2.401,3.584l0.897,1.037l-1.308-0.421c-2.041-0.658-4.164-1.066-6.304-1.195
						c-1.07-0.065-2.143-0.068-3.213-0.007c-1.062,0.082-2.173,0.123-3.059,0.517c-0.889,0.383-1.451,1.254-1.556,2.245
						c-0.12,0.982,0.12,2.028,0.661,2.87c1.113,1.754,3.078,2.809,4.882,4.025c3.625,2.433,7.072,5.258,9.727,8.771
						c2.63,3.495,4.39,7.756,4.429,12.135c-0.192-4.381-2.128-8.487-4.787-11.859c-2.678-3.406-6.138-6.096-9.758-8.458
						c-1.771-1.19-3.837-2.239-5.125-4.209c-0.639-0.988-0.93-2.186-0.796-3.367c0.071-0.588,0.252-1.183,0.597-1.696
						c0.343-0.511,0.844-0.932,1.395-1.179c1.124-0.492,2.248-0.511,3.34-0.61c1.104-0.077,2.212-0.064,3.315,0.012
						c2.207,0.148,4.391,0.585,6.49,1.277l-0.411,0.616c-0.974-1.143-1.862-2.384-2.492-3.782c-0.627-1.383-0.969-2.99-0.627-4.54
						c0.311-1.563,1.342-2.885,2.587-3.775c1.25-0.9,2.756-1.418,4.266-1.551c3.052-0.262,5.988,0.665,8.731,1.741
						C362.047,208.192,364.663,209.632,367.062,211.364z"/>
				</g>
				<g>
					<path style="fill:#2E2F2E;" d="M383.324,234.159c-1.283-2.935-3.264-5.55-5.753-7.528c-2.456-2.012-5.363-3.464-8.441-4.164
						c-1.533-0.367-3.125-0.497-4.683-0.444c-1.544,0.078-3.128,0.38-4.415,1.188c-1.296,0.751-2.236,2.135-1.985,3.602
						c0.176,1.463,1.158,2.765,2.258,3.84l2.349,2.295l-2.83-1.667c-1.627-0.958-3.445-1.574-5.309-1.85
						c-0.926-0.117-1.919-0.25-2.579,0.154c-0.697,0.395-0.812,1.298-0.566,2.155c0.239,0.864,0.71,1.676,1.304,2.401
						c0.594,0.756,1.222,1.488,1.855,2.217c1.271,1.453,2.605,2.857,3.914,4.292c2.606,2.866,5.201,5.837,7.063,9.288
						c1.844,3.419,2.986,7.361,2.479,11.239c0.361-3.897-0.937-7.722-2.855-11.03c-1.905-3.357-4.523-6.231-7.184-9.035
						c-1.333-1.405-2.669-2.815-3.966-4.269c-0.644-0.731-1.285-1.467-1.894-2.231c-0.636-0.768-1.177-1.661-1.462-2.668
						c-0.137-0.504-0.21-1.056-0.092-1.623c0.103-0.574,0.495-1.102,0.987-1.409c0.508-0.314,1.083-0.396,1.601-0.402
						c0.527-0.003,1.013,0.055,1.509,0.116c1.977,0.265,3.89,0.954,5.602,1.971l-0.481,0.628c-1.15-1.151-2.245-2.555-2.459-4.322
						c-0.109-0.859,0.048-1.797,0.528-2.537c0.459-0.74,1.097-1.368,1.836-1.775c1.453-0.889,3.136-1.19,4.768-1.257
						c1.64-0.021,3.269,0.15,4.846,0.561c3.151,0.797,6.11,2.325,8.539,4.46C380.259,228.459,382.154,231.179,383.324,234.159z"/>
				</g>
				<g>
					<path style="fill:#2E2F2E;" d="M391.72,260.341c-0.612-2.715-1.234-5.442-2.3-7.996c-0.521-1.27-1.135-2.536-1.914-3.633
						c-0.822-1.088-1.79-2.083-2.816-2.993c-1.034-0.9-2.128-1.741-3.319-2.378c-1.169-0.613-2.534-1.093-3.708-0.705
						c-0.576,0.183-1.072,0.587-1.416,1.107c-0.333,0.482-0.385,1.084-0.257,1.711c0.256,1.267,1.013,2.49,1.316,3.954l0.452,2.187
						l-1.191-1.885c-0.55-0.871-1.953-1.035-2.9-0.502c-0.968,0.534-1.513,1.719-1.603,2.888c-0.103,1.182,0.207,2.407,0.717,3.509
						c0.52,1.11,1.227,2.147,2.001,3.14c1.537,1.985,3.343,3.881,4.389,6.271c1.009,2.378,1.209,5.078,0.538,7.534
						c0.496-2.49,0.201-5.121-0.891-7.374c-1.087-2.264-2.891-4.079-4.515-6.046c-0.808-0.99-1.599-2.031-2.16-3.225
						c-0.559-1.188-0.919-2.508-0.817-3.869c0.097-1.325,0.678-2.765,1.967-3.508c0.636-0.348,1.37-0.488,2.088-0.384
						c0.712,0.096,1.441,0.471,1.868,1.122l-0.739,0.302c-0.273-1.271-1-2.493-1.304-3.966c-0.069-0.372-0.092-0.766-0.045-1.167
						c0.068-0.399,0.207-0.797,0.442-1.13c0.428-0.637,1.07-1.16,1.828-1.394c0.755-0.248,1.548-0.192,2.262-0.017
						c0.721,0.176,1.39,0.469,2.021,0.811c1.26,0.691,2.385,1.567,3.416,2.531c1.029,0.967,1.986,2.005,2.811,3.164
						c0.799,1.199,1.368,2.479,1.868,3.795C390.76,254.839,391.297,257.59,391.72,260.341z"/>
				</g>
				<g>
					<path style="fill:#2E2F2E;" d="M396.907,277.75c-0.594-2.509-1.521-4.936-2.917-7.057c-0.679-1.052-1.544-2.047-2.674-2.226
						c-0.538-0.099-1.144,0.049-1.446,0.392c-0.287,0.306-0.241,0.957-0.186,1.577l0.077,0.873l-0.705-0.529
						c-0.57-0.428-1.385-0.496-2.095-0.269c-0.723,0.204-1.316,0.734-1.711,1.407c-0.811,1.375-0.72,3.117-0.305,4.725
						c0.798,3.292,2.161,6.46,3.896,9.419c-2.064-2.754-3.594-5.909-4.572-9.246c-0.456-1.658-0.636-3.623,0.301-5.287
						c0.449-0.811,1.209-1.526,2.147-1.807c0.916-0.276,1.999-0.189,2.813,0.436l-0.628,0.344c-0.022-0.329-0.047-0.662-0.019-1.026
						c0.022-0.353,0.127-0.788,0.424-1.112c0.592-0.618,1.417-0.727,2.13-0.604c0.722,0.125,1.37,0.521,1.847,1.015
						c0.487,0.492,0.855,1.055,1.187,1.618C395.82,272.648,396.591,275.191,396.907,277.75z"/>
				</g>
			</g>
			<g>
				<g>
					<g>
						<g>
							<path style="fill:#2E2F2E;" d="M208.607,130.441c3.539,7.016,6.857,14.148,9.947,21.383
								c3.056,7.249,5.883,14.597,8.477,22.031c2.601,7.429,5.093,14.916,6.967,22.572l1.339,5.755
								c0.392,1.931,0.814,3.854,1.174,5.79l1.021,5.818c0.267,1.953,0.573,3.897,0.803,5.854l-0.216,0.043
								c-1.079-3.788-2.076-7.584-3.105-11.369l-3.146-11.327c-2.14-7.532-4.144-15.104-6.509-22.577
								c-2.373-7.469-4.983-14.865-7.826-22.175c-2.809-7.324-5.852-14.563-9.124-21.701L208.607,130.441z"/>
						</g>
						<g>
							<path style="fill:#2E2F2E;" d="M249.478,280.684c2.189,22.345,2.703,44.827,1.544,67.194
								c0.425-22.393-0.826-44.791-3.733-66.943L249.478,280.684z"/>
						</g>
						<g>
							<path style="fill:#2E2F2E;" d="M207.109,137.8c1.828,3.126,3.407,6.372,4.904,9.653c1.467,3.294,2.85,6.627,4.008,10.043
								l1.586,5.176c0.493,1.737,0.993,3.469,1.558,5.178c1.09,3.432,2.349,6.803,3.624,10.178c0.618,1.693,1.264,3.38,1.859,5.082
								c0.58,1.707,1.126,3.426,1.667,5.146l1.558,5.181c0.499,1.733,0.945,3.481,1.405,5.225c1.702,7.01,3.034,14.115,3.755,21.308
								l-0.216,0.043c-2.083-6.916-3.943-13.843-5.815-20.767c-0.927-3.464-1.776-6.948-2.68-10.42
								c-0.946-3.46-1.815-6.944-2.684-10.435c-0.481-1.731-0.915-3.478-1.438-5.197c-0.53-1.717-1.105-3.419-1.71-5.111
								c-1.259-3.367-2.781-6.636-4.185-9.941c-0.705-1.651-1.371-3.316-1.986-5.002c-0.649-1.672-1.283-3.351-1.887-5.042
								c-0.632-1.68-1.245-3.368-1.822-5.074c-0.606-1.693-1.187-3.399-1.702-5.136L207.109,137.8z"/>
						</g>
						<g>
							<path style="fill:#2E2F2E;" d="M244.257,283.286c0.885,11.46,1.21,22.954,0.931,34.427
								c-0.13,5.736-0.424,11.466-0.842,17.183c-0.423,5.7-0.975,11.443-0.062,17.123c-1.097-5.648-0.728-11.452-0.488-17.155
								c0.234-5.719,0.344-11.441,0.29-17.16c-0.088-11.438-0.779-22.861-2.022-34.212L244.257,283.286z"/>
						</g>
					</g>
					<g>
						<path style="fill:#2E2F2E;" d="M209.6,131.224c0.958,6.759,2.474,13.382,4.579,19.833c1.02,3.233,2.14,6.456,3.597,9.533
							c1.42,3.094,3.147,6.042,5.05,8.856c1.88,2.818,4.09,5.469,5.576,8.65c0.751,1.577,1.272,3.292,1.544,5.015
							c0.287,1.725,0.358,3.457,0.418,5.164c0.17,6.821,0.267,13.641,0.143,20.47l-0.11,0.004
							c-0.574-6.805-0.926-13.62-1.207-20.433c-0.117-3.389-0.319-6.762-1.731-9.79c-1.349-3.051-3.417-5.794-5.141-8.755
							c-1.767-2.934-3.358-5.959-4.886-9.016c-1.491-3.073-2.949-6.178-4.122-9.403c-2.28-6.465-3.607-13.285-3.821-20.119
							L209.6,131.224z"/>
					</g>
					<g>
						<path style="fill:#2E2F2E;" d="M234.86,201.964c-0.215,5.215-1.026,10.384-2.404,15.375c1.02-5.076,1.455-10.248,1.302-15.382
							L234.86,201.964z"/>
					</g>
				</g>
				<g>
					<path style="fill:#2E2F2E;" d="M243.135,283.928c2.86,1.849,5,4.815,6,8.133c1.028,3.346,0.67,6.983-0.342,10.223
						c-0.992,3.271-2.484,6.315-3.32,9.574c-0.934,3.239-0.866,6.669-0.301,9.96c0.561,3.305,1.562,6.518,2.456,9.776
						c0.91,3.249,1.804,6.556,2.116,9.987c0.171,1.71,0.146,3.445-0.021,5.164c-0.213,1.717-0.607,3.408-1.205,5.022
						c-1.188,3.229-3.151,6.156-5.669,8.427l-0.078-0.078c2.244-2.514,3.948-5.463,4.932-8.629c1.039-3.157,1.232-6.504,0.871-9.795
						c-0.618-6.619-3.251-12.999-3.999-19.79c-0.229-1.688-0.239-3.398-0.203-5.096c0.098-1.699,0.326-3.39,0.731-5.041
						c0.812-3.297,1.98-6.494,2.807-9.728c0.832-3.209,1.314-6.555,0.411-9.748c-0.824-3.18-2.663-6.117-5.252-8.273
						L243.135,283.928z"/>
				</g>
			</g>
			<g>
				<g>
					<g>
						<path style="fill:#2E2F2E;" d="M214.371,265.968c-1.091,7.13-0.954,14.448,0.093,21.631
							c1.047,7.191,2.985,14.257,5.521,21.099c5.087,13.716,12.456,26.481,19.784,39.161c-7.641-12.493-15.334-25.067-20.812-38.766
							c-2.73-6.837-4.875-13.939-6.125-21.237c-1.249-7.289-1.586-14.79-0.643-22.194L214.371,265.968z"/>
					</g>
					<g>
						<path style="fill:#2E2F2E;" d="M208.76,264.468c-0.759,16.282,1.452,32.719,6.37,48.324
							c2.459,7.804,5.595,15.403,9.375,22.677c1.874,3.645,3.946,7.19,6.15,10.65c0.531,0.879,1.096,1.735,1.687,2.573l1.742,2.539
							c0.596,0.826,1.098,1.766,1.944,2.345c0.418,0.286,0.955,0.408,1.444,0.236c0.476-0.142,0.932-0.563,0.897-1.1
							c0.047,0.536-0.404,0.978-0.886,1.133c-0.494,0.187-1.057,0.074-1.492-0.211c-0.884-0.58-1.404-1.512-2.019-2.322l-1.8-2.502
							c-0.611-0.827-1.196-1.672-1.748-2.539c-2.285-3.417-4.442-6.925-6.405-10.542c-3.958-7.216-7.283-14.787-9.936-22.594
							c-5.306-15.612-7.926-32.183-7.525-48.747L208.76,264.468z"/>
					</g>
				</g>
				<g>
					<path style="fill:#2E2F2E;" d="M212.708,266.099c-1.51,3.481-2.574,7.157-3.185,10.911c-0.585,3.758-0.701,7.589-0.375,11.384
						c0.344,3.794,1.179,7.542,2.448,11.137c1.274,3.596,3.095,6.982,5.073,10.259c3.989,6.535,8.774,12.654,12.012,19.677
						l0.595,1.317l0.53,1.345c0.367,0.891,0.664,1.808,0.962,2.723l1.698,5.509c0.595,1.823,1.245,3.637,2.134,5.339
						c0.886,1.699,2.009,3.288,3.422,4.595c-1.429-1.29-2.574-2.87-3.483-4.563c-0.912-1.697-1.586-3.508-2.204-5.328l-1.763-5.488
						c-0.308-0.909-0.615-1.818-0.99-2.699l-0.543-1.33l-0.608-1.302c-3.302-6.944-8.14-12.982-12.231-19.504
						c-2.028-3.272-3.912-6.671-5.251-10.313c-1.333-3.635-2.227-7.436-2.624-11.293c-0.379-3.858-0.308-7.764,0.244-11.608
						c0.578-3.84,1.62-7.614,3.127-11.203L212.708,266.099z"/>
				</g>
			</g>
			<g>
				<g>
					<path style="fill:#2E2F2E;" d="M312.701,234.594c-4.216,8.327-7.003,17.311-9.338,26.372
						c-2.331,9.072-4.261,18.268-6.87,27.296c-2.541,9.056-6.174,17.757-10.154,26.247c-4,8.488-8.14,16.904-12.206,25.358
						c3.983-8.492,8.042-16.952,11.956-25.473c3.895-8.526,7.43-17.235,9.874-26.283c2.513-9.026,4.35-18.227,6.598-27.347
						c2.254-9.107,4.966-18.184,9.155-26.665L312.701,234.594z"/>
				</g>
				<g>
					<path style="fill:#2E2F2E;" d="M314.236,235.505c-3.613,8.595-6.249,17.505-8.551,26.515
						c-1.184,4.497-2.372,9.003-3.385,13.549c-1.051,4.538-1.968,9.106-2.974,13.659c-1.947,9.117-4.573,18.131-8.096,26.789
						c-3.483,8.672-7.788,17.014-12.85,24.846l-0.095-0.057c4.472-8.176,8.458-16.581,11.89-25.211
						c1.699-4.32,3.279-8.688,4.703-13.109c1.422-4.421,2.664-8.902,3.862-13.4c1.177-4.503,2.247-9.038,3.187-13.6
						c0.984-4.553,1.819-9.141,2.872-13.688c2.143-9.069,5.042-18.048,9.337-26.342L314.236,235.505z"/>
				</g>
				<g>
					<path style="fill:#2E2F2E;" d="M311.613,234.73c-2.646,7.948-5.036,15.968-7.142,24.067c-1.065,4.046-2.094,8.105-2.939,12.205
						c-0.872,4.096-1.529,8.23-2.186,12.366c-0.656,4.133-1.315,8.289-2.481,12.333c-1.117,4.054-2.647,7.983-4.399,11.797
						c-1.738,3.824-3.768,7.502-5.878,11.123c-2.115,3.619-4.335,7.172-6.602,10.694l-0.047-0.029
						c2.108-3.62,4.259-7.212,6.303-10.863c2.029-3.658,3.968-7.365,5.708-11.161c1.71-3.807,3.269-7.69,4.417-11.703
						c1.184-4.001,1.957-8.118,2.681-12.24c0.687-4.131,1.486-8.245,2.297-12.354c0.83-4.105,1.684-8.209,2.684-12.28
						c2.029-8.133,4.536-16.149,7.532-23.973L311.613,234.73z"/>
				</g>
			</g>
			<g>
				<g>
					<g>
						<path style="fill:#2E2F2E;" d="M274.932,118.248c-1.624,5.264-3.475,10.45-5.528,15.546
							c1.708-5.222,3.203-10.504,4.465-15.836L274.932,118.248z"/>
					</g>
					<g>
						<g>
							<path style="fill:#2E2F2E;" d="M270.675,120.391c-1.387,3.289-2.574,6.677-3.661,10.095
								c-1.082,3.421-2.059,6.879-2.933,10.365c0.695-3.526,1.495-7.034,2.404-10.518c0.915-3.482,1.931-6.942,3.165-10.345
								L270.675,120.391z"/>
						</g>
						<g>
							<path style="fill:#2E2F2E;" d="M258.999,168.364c0.299,2.275,0.373,4.535,0.409,6.792c0.024,2.257,0.005,4.51-0.203,6.757
								c-0.214,2.247-0.641,4.49-0.761,6.742c-0.13,2.253-0.062,4.51,0.106,6.768c0.182,2.258,0.318,4.512,0.36,6.766
								c0.077,2.254,0.134,4.506,0.117,6.759c-0.092,4.506-0.298,9.011-0.915,13.536l-0.22,0.005
								c-0.8-4.498-1.104-9.017-1.214-13.536c-0.023-2.26,0.046-4.519,0.151-6.778c0.077-2.259,0.266-4.516,0.516-6.77
								c0.245-2.254,0.405-4.508,0.386-6.766c-0.003-2.258-0.296-4.525-0.357-6.788c-0.048-2.262,0.11-4.518,0.33-6.769
								c0.239-2.25,0.536-4.498,1.077-6.728L258.999,168.364z"/>
						</g>
						<g>
							<path style="fill:#2E2F2E;" d="M257.106,243.467c2.825,32.931,1.437,66.077-2.929,98.716
								c3.638-32.728,4.276-65.83,0.736-98.504L257.106,243.467z"/>
						</g>
						<g>
							<path style="fill:#2E2F2E;" d="M262.952,170.46c-0.063,4.643-0.092,9.286-0.087,13.928c-0.032,4.64-0.03,9.28,0.005,13.919
								c0.021,4.639,0.266,9.277,0.096,13.913c-0.155,4.637-0.367,9.274-0.914,13.922l-0.22,0.003
								c-0.666-4.635-0.929-9.282-1.069-13.929c-0.154-4.648,0.174-9.294,0.344-13.938c0.185-4.644,0.404-9.285,0.656-13.924
								c0.289-4.638,0.612-9.273,0.968-13.904L262.952,170.46z"/>
						</g>
						<g>
							<path style="fill:#2E2F2E;" d="M262.106,250.77c0.602,7.854,0.805,15.721,0.851,23.569c0.048,7.85-0.033,15.686,0.069,23.518
								c0.129,7.834,0.225,15.701-0.281,23.539c-0.499,7.832-1.593,15.657-3.779,23.194c2.013-7.585,2.922-15.408,3.241-23.222
								c0.324-7.824,0.052-15.65-0.261-23.485c-0.289-7.843-0.396-15.688-0.63-23.515c-0.232-7.827-0.622-15.638-1.404-23.405
								L262.106,250.77z"/>
						</g>
					</g>
				</g>
				<g>
					<path style="fill:#2E2F2E;" d="M259.107,169.551c1.27,4.091,2.288,8.263,2.822,12.525c0.233,2.135,0.32,4.283,0.43,6.421
						c0.124,2.137,0.218,4.277,0.228,6.427c0.088,4.313-0.75,8.61-1.703,12.755c-0.988,4.151-1.994,8.258-2.189,12.536l-0.11,0.004
						c-0.51-4.292,0.27-8.636,1.152-12.797c0.453-2.089,0.97-4.151,1.367-6.232c0.401-2.078,0.685-4.173,0.879-6.291
						c0.177-2.117,0.206-4.256,0.018-6.378c-0.191-2.123-0.594-4.221-0.981-6.312c-0.708-4.192-1.474-8.381-2.023-12.635
						L259.107,169.551z"/>
				</g>
				<g>
					<path style="fill:#2E2F2E;" d="M274.735,118.582c-1.697,4.655-4.507,8.847-8.089,12.139c3.324-3.553,5.749-7.88,7.041-12.478
						L274.735,118.582z"/>
				</g>
			</g>
			<path style="fill:#2E2F2E;" d="M226.731,344.494c2.41-2.578,6.566-3.32,9.719-1.736c0.98,0.492,1.915,1.197,3.01,1.251
				c2.892,0.144,4.203-4.013,7.014-4.706c2.019-0.498,3.953,0.962,5.984,1.411c4.729,1.045,8.827-3.382,13.539-4.501
				c6.805-1.616,13.041,3.763,18.359,8.305c4.887,4.174,10.101,7.964,15.58,11.323c-12.411,6.907-27.256,7.519-41.459,7.428
				c-18.859-0.121-37.712-1.189-56.464-3.2c-3.454-0.37,7.271-13.721,8.744-14.763C215.36,342.045,221.882,341.257,226.731,344.494z
				"/>
			<g>
				<path style="fill:#2E2F2E;" d="M203.779,358.557c-1.951-0.185-3.893-0.233-5.79,0.121c-1.859,0.338-3.755,1.232-4.6,2.943
					c-0.878,1.671-0.616,3.706-0.692,5.636c-0.029,1.949-0.014,3.898,0.02,5.847c0.113,7.795,0.429,15.583,0.967,23.351
					c0.553,7.75,1.217,15.556,2.028,23.213c0.487,3.77,1.318,7.409,3.322,10.408c1.976,3.02,4.836,5.485,8.057,7.404
					c3.221,1.942,6.751,3.431,10.405,4.651c3.648,1.209,7.372,2.238,11.169,2.962c3.795,0.721,7.633,1.281,11.501,1.598
					c3.868,0.292,7.754,0.451,11.642,0.405c7.78-0.065,15.547-0.776,23.285-1.667c3.867-0.419,7.712-0.982,11.418-2.019
					c3.695-1.017,7.282-2.506,10.21-4.827c2.934-2.321,4.95-5.535,5.852-9.144c0.936-3.608,1.091-7.481,1.386-11.368
					c0.529-7.76,0.834-15.531,0.999-23.302c0.141-7.772,0.07-15.546-0.214-23.31l-0.249-5.822l-0.139-2.91
					c-0.055-0.945-0.09-1.995-0.162-2.851c-0.077-0.868-0.235-1.679-0.503-2.242c-0.284-0.57-0.541-0.792-0.998-0.928
					c-0.491-0.151-1.369-0.115-2.375-0.078l-2.923,0.086l-23.414,0.671c-7.807,0.213-15.615,0.301-23.418,0.364
					C234.956,357.894,219.372,357.967,203.779,358.557z M203.79,358.227c15.591-0.566,31.191-1.649,46.768-2.656
					c15.581-1.071,31.132-1.783,46.722-2.382l2.925-0.1c0.933-0.006,2.039-0.155,3.444,0.214c0.695,0.188,1.424,0.573,1.981,1.09
					c0.568,0.517,0.973,1.137,1.254,1.737c0.556,1.213,0.716,2.361,0.819,3.428c0.243,4.024,0.401,7.856,0.483,11.797
					c0.174,7.831,0.133,15.666-0.121,23.492c-0.245,7.827-0.759,15.642-1.493,23.434c-0.382,3.868-0.641,7.851-1.83,11.775
					c-1.125,3.926-3.61,7.572-6.917,9.959c-3.293,2.432-7.121,3.846-10.958,4.771c-1.922,0.479-3.869,0.799-5.813,1.086
					c-1.942,0.301-3.894,0.517-5.837,0.712c-7.77,0.788-15.569,1.386-23.393,1.583c-7.819,0.179-15.686-0.074-23.479-1.262
					c-3.898-0.577-7.751-1.476-11.552-2.572c-3.784-1.112-7.567-2.482-11.092-4.479c-3.497-1.997-6.828-4.629-9.131-8.167
					c-1.157-1.751-2.04-3.704-2.614-5.688c-0.594-1.984-0.901-4.001-1.13-5.982c-0.424-3.962-0.641-7.824-0.845-11.745
					c-0.217-3.907-0.305-7.82-0.371-11.73c-0.12-7.821-0.041-15.64,0.241-23.447l0.222-5.853c0.044-0.977,0.06-1.945,0.135-2.935
					c0.085-0.981,0.257-2.013,0.78-2.899c0.489-0.893,1.244-1.629,2.116-2.127c0.873-0.503,1.84-0.798,2.812-0.977
					C199.867,357.956,201.868,358.027,203.79,358.227z"/>
			</g>
			<g>
				<path style="fill:#2E2F2E;" d="M197.006,426.74c7.273,3.144,14.937,5.395,22.745,6.923c7.812,1.529,15.77,2.346,23.748,2.643
					c15.972,0.579,31.988-0.875,47.819-3.243c-15.773,2.73-31.77,4.557-47.847,4.344c-8.031-0.115-16.074-0.752-24.019-2.119
					c-7.941-1.366-15.787-3.472-23.297-6.516L197.006,426.74z"/>
			</g>
			<g>
				<g>
					<path style="fill:#2E2F2E;" d="M196.889,362.263l6.066,0.871c2.02,0.289,4.041,0.563,6.065,0.808
						c4.047,0.491,8.095,0.963,12.159,1.264c4.058,0.358,8.125,0.603,12.197,0.815c2.036,0.103,4.074,0.177,6.114,0.233l6.126,0.173
						c-2.038,0.182-4.081,0.268-6.125,0.367c-2.045,0.053-4.091,0.074-6.138,0.073c-4.094-0.013-8.186-0.229-12.267-0.566
						c-4.075-0.395-8.147-0.853-12.185-1.526c-2.017-0.347-4.03-0.714-6.036-1.113C200.865,363.219,198.867,362.787,196.889,362.263
						z"/>
				</g>
				<g>
					<path style="fill:#2E2F2E;" d="M253.588,366.939c2.568-0.483,5.143-0.633,7.719-0.701c2.577-0.035,5.155,0.014,7.74,0.399
						c-2.568,0.486-5.143,0.636-7.719,0.701C258.751,367.37,256.173,367.321,253.588,366.939z"/>
				</g>
				<g>
					<path style="fill:#2E2F2E;" d="M274.667,366.376c2.943-0.575,5.855-0.982,8.764-1.473c2.914-0.459,5.805-0.997,8.779-1.383
						c-2.741,1.226-5.656,1.974-8.602,2.469C280.657,366.453,277.655,366.667,274.667,366.376z"/>
				</g>
			</g>
			<path style="fill:#FFFFFF;" d="M272.135,347.064c0.707,0.102,1.273,0.618,1.79,1.111c0.435,0.413,0.87,0.826,1.304,1.24
				c0.2,0.19,0.405,0.388,0.51,0.643c0.225,0.548-0.102,1.199-0.595,1.528s-1.106,0.409-1.697,0.46
				c-1.364,0.118-5.717,0.594-5.802-1.529C267.584,348.944,270.772,346.867,272.135,347.064z"/>
			<path style="fill:#FFFFFF;" d="M217.05,347.166c0.733-0.741,1.666-1.472,2.699-1.338c1.12,0.146,1.841,1.228,2.41,2.204
				c-2.125,0.506-4.288,0.854-6.464,1.038c0.292-0.798,0.823-1.508,1.507-2.013L217.05,347.166z"/>
			<path style="fill:#FFFFFF;" d="M236.337,355.77c0.232-0.474,0.514-0.924,0.842-1.337c0.32-0.404,0.723-0.796,1.233-0.864
				c0.49-0.066,0.981,0.193,1.31,0.562c0.329,0.369,0.524,0.837,0.694,1.301c0.179,0.488,0.338,0.983,0.476,1.483
				c0.044,0.157,0.083,0.336-0.001,0.476c-0.066,0.111-0.193,0.168-0.314,0.213c-0.633,0.237-1.321,0.328-1.994,0.263
				L236.337,355.77z"/>
			<path style="fill:#FFFFFF;" d="M254.043,346.067c0.559-0.778,1.411-1.49,2.363-1.386c0.695,0.076,1.311,0.631,1.46,1.314
				c0.149,0.683-0.181,1.444-0.781,1.802L254.043,346.067z"/>
			<g>
				<g>
					<path style="fill:#FFFFFF;" d="M214.457,355.301c0.886,0,0.887-1.377,0-1.377C213.571,353.924,213.57,355.301,214.457,355.301
						L214.457,355.301z"/>
				</g>
			</g>
			<g>
				<g>
					<path style="fill:#FFFFFF;" d="M226.846,350.476c0.886,0,0.887-1.377,0-1.377C225.96,349.099,225.959,350.476,226.846,350.476
						L226.846,350.476z"/>
				</g>
			</g>
			<g>
				<g>
					<path style="fill:#FFFFFF;" d="M225.412,355.171c0.886,0,0.887-1.377,0-1.377C224.526,353.794,224.524,355.171,225.412,355.171
						L225.412,355.171z"/>
				</g>
			</g>
			<g>
				<g>
					<path style="fill:#FFFFFF;" d="M255.798,357.127c0.886,0,0.887-1.377,0-1.377C254.911,355.75,254.91,357.127,255.798,357.127
						L255.798,357.127z"/>
				</g>
			</g>
			<g>
				<g>
					<path style="fill:#FFFFFF;" d="M242.496,350.085c0.886,0,0.887-1.377,0-1.377C241.61,348.708,241.608,350.085,242.496,350.085
						L242.496,350.085z"/>
				</g>
			</g>
			<g>
				<g>
					<path style="fill:#FFFFFF;" d="M285.531,355.04c0.886,0,0.887-1.377,0-1.377C284.645,353.664,284.644,355.04,285.531,355.04
						L285.531,355.04z"/>
				</g>
			</g>
			<g>
				<g>
					<path style="fill:#FFFFFF;" d="M271.708,342.26c0.886,0,0.887-1.377,0-1.377C270.822,340.883,270.82,342.26,271.708,342.26
						L271.708,342.26z"/>
				</g>
			</g>
			<g>
				<g>
					<path style="fill:#FFFFFF;" d="M270.925,356.591c0.532,0,0.533-0.826,0-0.826C270.393,355.765,270.393,356.591,270.925,356.591
						L270.925,356.591z"/>
				</g>
			</g>
			<g>
				<g>
					<path style="fill:#FFFFFF;" d="M247.582,345.245c0.531,0,0.532-0.826,0-0.826C247.05,344.419,247.049,345.245,247.582,345.245
						L247.582,345.245z"/>
				</g>
			</g>
			<g>
				<g>
					<path style="fill:#FFFFFF;" d="M244.582,345.767c0.532,0,0.533-0.826,0-0.826C244.051,344.941,244.05,345.767,244.582,345.767
						L244.582,345.767z"/>
				</g>
			</g>
			<g>
				<g>
					<path style="fill:#FFFFFF;" d="M233.367,345.245c0.532,0,0.532-0.826,0-0.826C232.835,344.419,232.834,345.245,233.367,345.245
						L233.367,345.245z"/>
				</g>
			</g>
			<g>
				<g>
					<path style="fill:#FFFFFF;" d="M235.062,348.114c0.532,0,0.532-0.826,0-0.826C234.531,347.288,234.53,348.114,235.062,348.114
						L235.062,348.114z"/>
				</g>
			</g>
			<g>
				<g>
					<path style="fill:#FFFFFF;" d="M210.806,351.896c0.532,0,0.533-0.826,0-0.826C210.274,351.07,210.273,351.896,210.806,351.896
						L210.806,351.896z"/>
				</g>
			</g>
			<g>
				<g>
					<path style="fill:#FFFFFF;" d="M206.894,354.896c0.532,0,0.532-0.826,0-0.826C206.362,354.069,206.361,354.896,206.894,354.896
						L206.894,354.896z"/>
				</g>
			</g>
			<g>
				<g>
					<path style="fill:#FFFFFF;" d="M232.715,356.591c0.532,0,0.533-0.826,0-0.826C232.183,355.765,232.182,356.591,232.715,356.591
						L232.715,356.591z"/>
				</g>
			</g>
			<g>
				<g>
					<path style="fill:#FFFFFF;" d="M235.714,358.808c0.532,0,0.532-0.826,0-0.826C235.183,357.982,235.182,358.808,235.714,358.808
						L235.714,358.808z"/>
				</g>
			</g>
			<g>
				<g>
					<path style="fill:#FFFFFF;" d="M249.799,355.026c0.532,0,0.533-0.826,0-0.826C249.267,354.2,249.266,355.026,249.799,355.026
						L249.799,355.026z"/>
				</g>
			</g>
			<g>
				<g>
					<path style="fill:#FFFFFF;" d="M255.015,352.157c0.532,0,0.532-0.826,0-0.826C254.483,351.331,254.483,352.157,255.015,352.157
						L255.015,352.157z"/>
				</g>
			</g>
			<g>
				<g>
					<path style="fill:#FFFFFF;" d="M261.144,353.591c0.532,0,0.532-0.826,0-0.826C260.613,352.765,260.612,353.591,261.144,353.591
						L261.144,353.591z"/>
				</g>
			</g>
			<g>
				<g>
					<path style="fill:#FFFFFF;" d="M281.88,350.07c0.532,0,0.532-0.826,0-0.826C281.348,349.244,281.347,350.07,281.88,350.07
						L281.88,350.07z"/>
				</g>
			</g>
			<g>
				<g>
					<path style="fill:#FFFFFF;" d="M264.274,344.072c0.532,0,0.532-0.826,0-0.826C263.743,343.245,263.742,344.072,264.274,344.072
						L264.274,344.072z"/>
				</g>
			</g>
			<g>
				<g>
					<path style="fill:#FFFFFF;" d="M275.62,343.419c0.531,0,0.532-0.826,0-0.826C275.088,342.593,275.087,343.419,275.62,343.419
						L275.62,343.419z"/>
				</g>
			</g>
		</g>
		<g>
			<path style="fill:#2E2F2E;" d="M193.453,415.615c-32.866-2.095-66.196,2.004-97.824,11.866
				c31.281-10.907,64.649-16.18,97.978-15.167L193.453,415.615z"/>
		</g>
		<g>
			<path style="fill:#2E2F2E;" d="M305.542,412.314c33.329-1.013,66.697,4.26,97.978,15.167
				c-31.628-9.862-64.958-13.961-97.824-11.866L305.542,412.314z"/>
		</g>
	</g>
</g>
</svg>
